<svg
  xmlns="http://www.w3.org/2000/svg"
  xmlns:xlink="http://www.w3.org/1999/xlink"
  version="1.1"
  id="Layer_1"
  x="0px"
  y="0px"
  width="100%"
  viewBox="0 0 352 352"
  enable-background="new 0 0 352 352"
  xml:space="preserve"
>
  <path
    fill="currentColor"
    opacity="1.000000"
    stroke="none"
    d=" M120.437798,149.371841   C118.784645,146.492950 118.796173,143.225067 116.467857,141.005402   C114.287071,143.287445 117.902557,147.492111 112.611000,149.547913   C111.133072,111.910133 122.893829,80.248756 149.908707,53.570702   C146.020218,52.783955 142.801590,53.728054 139.560516,54.208771   C128.569839,55.838928 119.552589,62.089603 109.843048,66.753822   C93.581436,74.565483 80.369698,86.591042 66.486656,97.704277   C63.629715,99.991234 60.714729,102.207100 57.790901,104.408455   C56.384892,105.467041 54.866501,106.094330 53.244270,104.764221   C51.823566,103.599350 51.626045,102.330139 51.950527,100.392021   C56.472359,73.383217 72.752640,55.909195 96.676491,44.378551   C105.716866,40.021339 114.885788,36.094669 124.800888,34.384308   C134.539719,32.704357 144.405884,33.537464 154.189270,33.978951   C157.979752,34.149998 161.361435,36.556690 163.586502,39.981148   C165.811295,43.405155 168.443222,43.774136 172.497772,42.678467   C186.475342,38.901279 198.587585,38.950920 215.983093,48.316032   C224.189682,40.316380 233.979599,34.949394 245.469589,33.097908   C249.871628,32.388569 254.281357,32.056389 258.816040,33.149780   C263.798584,34.351170 268.948151,35.208336 274.061127,35.450054   C285.733032,36.001846 294.170837,41.448738 300.202698,51.216221   C304.902222,58.826206 307.597656,66.931221 308.556519,75.918015   C309.352478,83.377831 310.973816,90.689896 308.329132,98.035759   C307.062134,101.554932 306.151459,105.275475 303.150177,108.650787   C296.545349,102.174751 290.807251,95.382675 285.206970,88.430763   C273.708771,74.157455 258.967377,63.990978 242.609421,56.201015   C238.472427,54.230907 233.477448,55.150391 227.447830,56.802052   C243.285110,72.893188 250.012878,92.391319 247.982712,113.660858   C245.991592,134.521530 237.776413,153.412552 220.416382,167.990997   C225.687256,170.186218 229.787430,173.015457 234.135284,175.179108   C247.274231,181.717453 252.771729,193.472931 254.103851,206.630035   C255.673706,222.135284 254.437088,237.820114 250.423340,253.102829   C247.600082,263.852631 244.490082,274.787384 237.913452,283.606049   C232.795837,290.468323 226.904434,297.446320 218.818207,301.543304   C211.762573,305.118073 206.160446,310.021179 202.275009,317.079315   C198.549637,323.846680 192.483368,328.017303 185.421112,331.148590   C180.135529,333.492157 175.294403,336.837585 170.252457,339.731842   C169.325027,340.264221 168.392654,340.426514 166.838272,339.124298   C170.454468,330.504700 176.794800,323.441406 182.598389,316.093567   C180.475372,313.436157 177.957932,315.020386 175.821289,314.793701   C169.750824,314.149689 164.031143,312.100555 158.143646,310.751709   C155.997742,310.260132 154.384872,310.511871 152.531876,311.648041   C146.148178,315.562317 139.658890,319.304810 133.193314,323.084534   C132.349258,323.577972 131.430038,324.199951 130.509949,324.266144   C122.002312,324.878082 114.047462,328.417816 105.524300,328.923676   C104.023376,329.012756 102.589111,329.072113 101.081085,328.709473   C98.170044,328.009460 97.600700,326.559387 99.070068,324.036072   C102.536293,318.083649 106.689255,312.764587 112.545082,308.943115   C114.497177,307.669159 116.410240,306.329834 118.286102,304.945770   C122.116150,302.119812 127.972748,300.247711 123.547691,294.257507   C124.622360,291.805908 126.382233,293.731964 127.844528,292.013519   C119.168297,274.211212 124.502144,254.437683 121.530853,234.974411   C116.801720,236.507843 112.302994,237.951340 107.814270,239.425323   C99.342308,242.207306 98.766579,241.770798 99.996292,233.314224   C97.717636,234.046204 96.500389,237.154327 93.283287,236.120667   C92.996948,233.963028 94.527245,232.478241 95.960548,231.914856   C104.034157,228.741348 108.385170,221.031891 115.272705,216.449051   C119.560150,213.596268 123.538147,210.162964 128.960968,209.667801   C130.850891,209.495224 132.023788,208.400925 132.875580,206.920670   C136.385559,200.820877 140.723480,195.345963 145.734268,190.455566   C150.775986,185.534988 156.935852,182.160950 163.344086,178.825623   C156.096786,174.271393 148.249298,172.064743 140.272415,170.153595   C138.188492,169.654297 136.073624,168.992661 134.624863,167.183151   C129.957779,161.353928 125.291519,155.524048 120.437798,149.371841  M164.227127,182.146317   C156.004227,186.317566 148.650299,191.480316 142.733948,198.770920   C134.544769,208.862305 127.896454,219.489990 125.935722,232.699646   C124.794029,240.391388 125.896919,247.978943 125.957443,255.599030   C126.032005,264.987762 125.816780,274.423462 128.343826,283.708069   C129.493668,287.932739 130.688446,290.823761 135.675491,289.930695   C133.988831,299.781372 135.028137,301.165955 144.641541,302.754089   C146.593430,303.076508 148.589249,303.615356 150.357590,304.478790   C156.393463,307.426086 162.832153,308.997070 169.354263,310.237640   C179.765564,312.218048 189.544357,312.992004 196.915009,302.419312   C198.499084,300.147064 202.465790,296.330963 207.209656,296.954865   C208.140350,299.321655 206.947952,301.270050 206.308685,303.743134   C208.201599,302.253967 209.260147,300.289032 211.136841,300.356964   C217.439590,300.585083 220.166519,294.825562 224.885315,292.436768   C226.900558,291.416595 225.592377,288.097961 227.400101,287.289948   C238.123596,282.496796 240.310043,272.073059 243.813217,262.637970   C249.121078,248.342270 250.938828,233.375992 251.634842,218.218185   C252.590210,197.412689 244.340103,182.078369 225.033722,173.477158   C219.748718,171.122635 214.367737,170.147461 208.381088,173.010056   C201.717392,176.196381 194.818771,178.914963 187.122025,179.762833   C179.711136,180.579208 171.962631,178.170471 164.227127,182.146317  M93.012589,73.455841   C99.777153,68.524048 107.529076,65.335197 114.719025,61.155910   C128.570190,53.104675 143.513458,49.315880 159.503525,49.557297   C161.240356,49.583519 163.341660,48.963055 163.853806,51.887505   C163.393539,52.207016 162.906311,52.823849 162.366150,52.874340   C159.219711,53.168472 156.029175,53.158707 153.372925,55.302288   C146.726608,60.665829 140.888474,66.724640 136.134811,73.889793   C130.296097,82.690422 125.676071,92.253738 122.136253,101.975525   C117.444107,114.862076 112.484955,127.976952 120.318146,142.332855   C124.795395,150.538315 131.080765,157.002853 136.221909,164.480804   C137.482635,166.314575 139.772888,167.176163 142.147415,167.863144   C146.446121,169.106796 150.981750,169.402863 155.109894,171.324158   C168.699005,177.648743 182.769455,179.741516 197.095703,174.457870   C208.273849,170.335312 220.116760,166.829376 227.586899,156.498825   C243.928040,133.900467 250.758316,109.232475 240.455521,82.280106   C235.614807,69.616714 227.439484,59.298138 215.093292,51.709705   C200.199921,42.555676 185.477890,40.995995 169.455887,46.321480   C166.374939,47.345543 164.492996,46.611309 162.787506,43.943253   C160.709015,40.691628 158.184860,37.037289 154.253372,36.736950   C145.343521,36.056301 136.301407,35.519798 127.433388,36.297146   C117.268074,37.188213 108.013649,41.846592 98.783401,46.033424   C76.427429,56.174088 61.463509,72.737885 55.057449,96.683640   C54.546379,98.594009 53.564533,100.452827 56.094112,102.382515   C68.161690,92.888008 80.276512,83.356331 93.012589,73.455841  M221.428406,48.994667   C223.551895,52.685593 227.264648,52.375317 230.704300,52.576946   C234.839935,52.819374 239.110794,51.986420 243.071991,53.605686   C259.521027,60.329716 273.233704,71.078934 285.452667,83.670746   C291.376465,89.775322 295.673584,97.411407 302.294281,103.052841   C304.392517,101.128471 305.037109,98.890511 305.519989,96.615456   C308.238342,83.807785 306.410431,71.369843 301.212189,59.624832   C297.118317,50.375034 291.305176,42.036976 280.726715,39.188663   C275.812042,37.865349 270.585449,37.736931 265.528290,36.897980   C256.459625,35.393551 247.393311,34.245941 238.464798,37.458023   C231.912201,39.815346 225.778625,42.938797 221.428406,48.994667  M125.036835,314.402283   C126.290459,313.963226 127.587440,313.318909 128.534973,315.382904   C125.825188,318.623260 121.513504,319.584442 117.852005,321.945557   C124.261780,324.214996 128.577560,319.393311 133.731689,318.098602   C139.655258,316.610626 143.943878,311.327972 150.297256,309.304291   C125.786133,298.604004 118.121277,307.265930 109.079033,317.779480   C114.418678,317.499573 119.839485,318.429504 125.036835,314.402283  M121.456718,216.016891   C114.204361,220.326477 107.827850,225.416931 105.264694,234.298157   C108.768959,233.520477 111.987267,232.650146 115.584419,232.951218   C118.245888,233.173996 122.311081,231.536652 123.084450,229.085434   C124.752884,223.797272 126.853622,218.626846 128.846573,212.960846   C125.734261,212.936401 123.884865,214.285324 121.456718,216.016891  M191.833893,313.049042   C187.069290,315.960541 183.661682,320.102325 180.358337,325.362549   C185.139221,324.577637 189.481598,326.829498 193.191513,322.626465   C196.072647,319.362396 199.497345,316.669983 201.179367,311.382294   C197.656998,311.914673 195.081619,312.303925 191.833893,313.049042  z"
  />
  <path
    fill="currentColor"
    opacity="1.000000"
    stroke="none"
    d=" M204.572449,224.650314   C210.918945,216.257294 218.463348,210.663101 222.574539,211.864670   C218.009369,216.992874 211.824890,219.957718 207.804733,225.461060   C208.120743,227.360077 212.156021,229.122757 207.833618,231.293442   C212.168549,233.947754 214.395706,230.677185 217.108139,229.202118   C219.604141,227.844711 220.988068,224.014221 224.954514,225.467697   C221.055206,234.008209 204.716385,240.291626 198.991226,235.384781   C200.255920,231.694901 202.259918,228.298203 204.572449,224.650314  z"
  />
  <path
    fill="currentColor"
    opacity="1.000000"
    stroke="none"
    d=" M185.715973,114.117401   C183.462463,114.035782 183.298111,112.870522 183.771896,111.370354   C184.207336,109.991653 185.105301,108.678825 184.189774,106.792534   C182.858627,109.166695 182.078888,111.675301 179.716415,113.326111   C177.887253,111.993881 178.337463,110.173706 178.874985,108.505913   C182.393799,97.588112 185.969681,86.688614 189.563873,75.795326   C189.873306,74.857498 190.335632,73.921715 190.925934,73.134140   C192.613281,70.882904 194.294205,67.912468 197.475815,68.530815   C200.676559,69.152855 200.116364,72.451752 200.678619,75.025261   C203.393860,87.453247 199.635483,99.334480 198.100708,111.423477   C197.407715,116.881905 195.499374,121.513336 190.516602,125.862679   C199.483673,125.962807 207.526627,123.292183 215.508179,126.590881   C214.907013,129.814880 212.257217,129.376755 210.251129,128.677628   C202.645554,126.027046 195.552200,129.793854 188.206207,130.193359   C185.645386,130.332611 180.460541,137.372711 180.690170,139.391327   C181.057388,142.619705 186.765793,148.979004 189.765457,149.465088   C193.095230,150.004654 194.333862,147.536240 195.422882,145.178925   C197.978119,145.563812 197.784439,147.185532 197.231659,148.587906   C196.415054,150.659653 195.017990,152.256882 192.587112,152.638931   C187.653839,153.414291 184.105103,150.992737 181.572617,147.281952   C177.745255,141.673782 172.524582,137.445038 167.900803,132.637619   C162.737183,127.268929 163.650833,123.795357 170.590622,121.074913   C176.596558,118.720528 182.736725,120.255424 188.756821,119.390060   C193.328766,118.732864 194.518021,116.967377 193.339432,111.541420   C190.942734,112.541809 188.245743,112.440071 185.715973,114.117401  M197.428497,94.299889   C197.952957,86.933197 200.368622,79.462975 196.389954,71.726326   C192.812653,75.160942 191.049393,78.844986 190.279327,83.043694   C195.024780,85.813156 195.967209,90.432510 196.632248,95.556244   C194.807495,99.653397 193.236465,103.795349 193.897385,109.344391   C197.996216,104.469635 196.210327,99.472359 197.428497,94.299889  M168.556442,125.994087   C169.045731,131.525085 174.467880,132.935516 177.159653,137.599686   C180.534454,132.791687 183.333710,128.803650 186.755234,123.929077   C180.030930,122.693748 174.385208,122.633659 168.556442,125.994087  z"
  />
  <path
    fill="currentColor"
    opacity="1.000000"
    stroke="none"
    d=" M170.592224,97.706757   C171.126373,96.000938 172.005417,94.625908 170.398773,93.016968   C167.351135,94.648605 167.936615,97.836777 167.539948,100.290138   C166.788239,104.939301 164.405396,108.218796 160.579147,110.663269   C159.628571,111.270569 158.749130,112.302902 157.456635,111.502754   C156.287811,110.779175 156.187134,109.587929 156.447922,108.403931   C157.911789,101.757500 159.650223,95.186340 162.448318,88.957016   C164.175232,85.112457 167.443130,86.901611 170.147293,87.261131   C172.200974,80.772522 172.237900,74.258453 170.143997,69.840424   C165.922287,71.853271 164.022690,75.713799 162.238892,79.560608   C158.509842,87.602371 156.724655,96.269600 155.031525,104.868813   C154.437988,107.883369 152.151764,109.543518 151.963287,112.643364   C150.171432,111.216339 150.301102,109.650108 150.659042,108.570618   C154.357483,97.416519 155.577301,85.453789 161.510040,75.032135   C163.163147,72.128265 165.068115,69.440605 167.892914,67.487579   C171.314301,65.122093 174.175751,66.100609 174.305832,70.339851   C174.565384,78.797844 175.348129,87.318169 173.935669,95.727791   C173.320602,99.389755 173.523331,103.021576 173.262283,106.660721   C173.141556,108.343613 173.162888,110.122444 170.329971,110.095604   C168.808838,106.084671 171.404785,102.039398 170.592224,97.706757  z"
  />
  <path
    fill="currentColor"
    opacity="1.000000"
    stroke="none"
    d=" M159.379333,132.644165   C149.475082,131.457153 140.944229,135.495010 132.146500,138.189453   C129.723526,138.931519 129.785767,139.134750 127.540207,137.930862   C135.463806,131.015945 160.269058,127.246574 163.248764,132.536407   C162.166000,134.110001 160.885468,132.867706 159.379333,132.644165  z"
  />
  <path
    fill="currentColor"
    opacity="1.000000"
    stroke="none"
    d=" M165.145874,154.303070   C158.892761,157.784012 154.155411,157.322815 151.591919,153.313522   C150.908691,152.244949 150.387817,151.157623 151.558624,150.254913   C152.423630,149.587982 153.248123,150.011002 154.128189,150.785492   C158.642639,154.758362 162.743622,153.928574 165.897324,148.464752   C167.100601,146.380081 168.158844,144.211700 169.775635,142.319321   C171.790359,147.573868 168.755661,150.868332 165.145874,154.303070  z"
  />
  <path
    fill="currentColor"
    opacity="1.000000"
    stroke="none"
    d=" M135.113403,141.446136   C136.337479,139.442642 138.154587,139.045929 140.002640,139.257019   C147.372467,140.098770 154.575241,139.409363 161.674149,137.307571   C162.227341,137.143768 162.918579,137.446213 163.466248,137.521088   C164.225388,139.460495 163.207138,140.370148 161.802429,140.583603   C152.963684,141.926758 144.096527,142.905380 135.113403,141.446136  z"
  />
  <path
    fill="currentColor"
    opacity="1.000000"
    stroke="none"
    d=" M195.541931,134.130814   C202.392929,133.748428 208.870621,130.831650 215.286926,134.409424   C205.894318,134.163116 196.639465,138.549561 187.183304,135.756882   C189.703674,133.376709 192.573044,135.527176 195.541931,134.130814  z"
  />
</svg>
