<svg
  xmlns="http://www.w3.org/2000/svg"
  xmlns:xlink="http://www.w3.org/1999/xlink"
  version="1.1"
  id="Layer_1"
  x="0px"
  y="0px"
  width="100%"
  viewBox="0 0 353 353"
  enable-background="new 0 0 353 353"
  xml:space="preserve"
>
  <path
    fill="currentColor"
    opacity="1.000000"
    stroke="none"
    d=" M236.626038,155.332962   C237.520386,147.902328 232.395279,144.585129 227.365494,140.913162   C226.660568,140.529404 226.523788,140.130707 226.795563,139.403580   C231.802109,138.450760 233.599472,142.888519 237.121506,145.172684   C238.289017,142.638550 239.437820,140.244354 240.497849,137.811462   C241.290390,135.992493 242.329239,134.688614 244.583160,135.020355   C246.776138,135.343124 247.030258,136.865509 247.038162,138.663254   C247.042145,139.569031 246.994705,140.316772 248.164352,141.029449   C252.986786,143.967773 253.131348,146.499817 249.122482,150.415634   C248.404327,151.117111 246.404526,150.805023 247.550232,153.115326   C250.446136,158.954803 249.606079,160.007675 242.393646,159.932617   C241.662628,159.463638 241.503113,159.023270 241.668488,158.183411   C242.449799,156.848892 245.134506,156.692032 243.953903,155.174667   C240.605576,150.871216 244.134995,149.364197 246.628189,147.294327   C247.137131,146.871796 247.606888,146.378357 247.605011,145.409241   C246.702408,143.055145 240.085495,147.258560 242.187469,140.753540   C239.884155,145.051468 240.398468,149.453384 240.136398,154.086365   C239.420074,155.457306 239.135193,156.636032 238.279266,157.940430   C237.773300,158.234177 237.524643,158.260117 236.963531,158.073669   C236.247894,157.161713 236.193008,156.427292 236.626038,155.332962  z"
  />
  <path
    fill="currentColor"
    opacity="1.000000"
    stroke="none"
    d=" M240.543839,160.736893   C240.929230,166.151978 240.816940,171.281952 239.049393,176.257401   C238.086533,178.967758 236.878616,181.664108 234.393570,182.990250   C229.346619,185.683563 229.371307,190.287018 228.947586,194.963226   C228.308945,202.011353 225.035156,206.524307 219.375534,206.997849   C218.646942,206.580048 218.480667,206.110016 218.612518,205.210358   C224.505569,201.221054 227.553055,196.565247 225.236725,189.395493   C224.549179,187.267319 225.646957,185.008102 227.709442,183.804581   C234.930344,179.591019 237.182770,173.049057 236.771515,165.155029   C236.702301,163.826660 236.813812,162.484802 237.704224,160.963257   C238.687088,160.270584 239.446259,160.227982 240.543839,160.736893  z"
  />
  <path
    fill="currentColor"
    opacity="1.000000"
    stroke="none"
    d=" M226.636292,138.938080   C227.010300,139.523743 227.006836,139.901718 227.010269,140.563110   C212.330139,137.332855 199.432007,142.107452 187.092499,149.465790   C184.012009,151.302750 180.935959,153.147125 177.517517,155.066803   C176.994934,154.953430 176.812714,154.761368 176.792938,154.206924   C191.380707,143.739166 206.512787,135.775757 225.001480,138.051056   C225.441803,138.105240 225.840652,138.496399 226.636292,138.938080  z"
  />
  <path
    fill="currentColor"
    opacity="1.000000"
    stroke="none"
    d=" M149.227539,211.850266   C144.407547,215.020126 140.107925,218.505341 134.370865,219.203781   C132.413269,219.442108 130.688309,219.478256 129.541321,217.852051   C128.298004,216.089233 129.344040,214.607849 130.366699,212.937302   C133.505142,207.810577 138.997299,205.662430 143.469116,202.257034   C144.612183,201.386581 145.778732,200.496887 147.204895,199.388306   C147.681381,199.322708 147.872849,199.464798 148.312561,199.865097   C148.609787,204.158340 145.385178,205.623871 142.701904,207.428558   C139.457596,209.610580 135.837158,211.337387 133.780685,215.475983   C136.830566,216.357330 138.785080,214.662552 140.868698,213.618744   C143.344193,212.378616 145.430695,210.206055 148.841293,210.691437   C149.236130,211.092789 149.320969,211.316116 149.227539,211.850266  z"
  />
  <path
    fill="currentColor"
    opacity="1.000000"
    stroke="none"
    d=" M218.835541,204.866028   C218.995865,205.568237 218.997009,205.973251 218.997055,206.682037   C213.591095,206.531845 208.217789,205.586380 202.849152,207.766708   C201.939789,208.136017 200.722748,206.036285 201.309509,204.296799   C202.195129,201.671341 203.495239,199.287125 205.590179,197.006210   C206.662231,196.815674 207.296799,197.095978 208.069061,197.846420   C208.583069,199.940399 206.609634,200.922592 206.623657,202.973007   C212.002716,202.116699 213.136780,196.863800 216.695892,193.840042   C220.688187,194.388153 219.641022,196.731415 218.774979,198.927002   C218.028656,200.819122 216.174942,202.638870 218.835541,204.866028  z"
  />
  <path
    fill="currentColor"
    opacity="1.000000"
    stroke="none"
    d=" M159.546814,163.108887   C156.925232,152.819443 153.928619,142.753952 153.921646,132.166275   C153.920059,129.743179 153.918152,127.236328 156.522034,126.275414   C159.431091,125.201874 162.180420,126.268440 164.038010,128.618591   C165.626541,130.628357 166.705276,133.041077 167.988678,135.642883   C167.750702,136.139725 167.533539,136.269241 166.938416,136.409424   C164.846420,135.849289 164.142365,134.259613 163.086456,133.013474   C161.853043,131.557861 160.810349,129.181259 158.435196,130.332336   C156.324478,131.355270 156.766327,133.697784 156.984604,135.685272   C157.635208,141.609512 158.599075,147.474976 160.135605,153.243866   C160.900345,156.115128 161.723083,159.009872 160.664886,162.363235   C160.299225,162.867432 160.107788,163.034241 159.546814,163.108887  z"
  />
  <path
    fill="currentColor"
    opacity="1.000000"
    stroke="none"
    d=" M205.406189,195.658875   C193.998672,197.250656 182.971359,198.710617 171.917709,199.932175   C169.910934,200.153931 168.883270,200.686157 168.118500,202.643646   C166.499268,201.019119 165.927216,199.350266 166.635529,197.118713   C167.069199,196.630203 167.298080,196.485825 167.919525,196.222916   C178.499084,195.563599 188.653351,194.671570 198.741043,193.132584   C200.712952,192.831741 202.650803,192.511108 205.021042,193.150116   C206.380920,193.877853 206.346863,194.616272 205.406189,195.658875  z"
  />
  <path
    fill="currentColor"
    opacity="1.000000"
    stroke="none"
    d=" M149.383636,212.252869   C149.030609,211.944260 149.011932,211.727432 148.968414,211.185089   C148.750046,209.949615 149.073380,209.133179 149.784607,208.680740   C152.782608,206.773605 155.120102,204.346848 156.772476,201.146286   C157.816177,199.124710 159.805099,198.328247 161.794525,199.726822   C164.022552,201.293106 163.748062,203.488525 162.075928,205.317459   C159.622772,208.000717 156.650894,210.191101 154.308502,213.460876   C153.385956,214.836319 152.720520,215.951675 152.574524,217.623444   C152.445740,218.616150 152.146896,219.166931 151.287720,219.702301   C150.548187,219.974823 150.095322,220.096817 149.321136,220.074783   C148.843079,219.793243 148.686340,219.655701 148.353943,219.259415   C147.146027,216.424469 150.068954,214.763229 149.383636,212.252869  z"
  />
  <path
    fill="currentColor"
    opacity="1.000000"
    stroke="none"
    d=" M173.180008,153.156036   C174.724045,147.896515 177.293808,143.198257 179.936554,138.534393   C181.618195,135.566605 183.508759,132.761749 184.144363,129.229019   C184.501343,127.244873 185.410614,125.680420 183.475769,123.956757   C181.221298,121.948364 180.404907,124.786156 178.852295,125.040627   C178.213791,125.145279 177.616226,125.499550 176.723221,125.366798   C177.163910,124.306145 177.804932,123.507393 178.613556,122.953156   C180.847931,121.421700 183.288910,121.374512 185.443649,122.902466   C187.497879,124.359138 187.295151,126.461906 186.485031,128.697525   C183.427567,137.134995 178.989838,144.891846 174.495972,152.917313   C173.948074,153.157730 173.719986,153.262070 173.180008,153.156036  z"
  />
  <path
    fill="currentColor"
    opacity="1.000000"
    stroke="none"
    d=" M162.316589,173.727020   C155.108582,170.188370 147.554337,170.989731 140.099182,170.990158   C135.157883,170.990448 130.564865,173.496155 125.507133,172.453995   C135.921738,168.816910 146.532181,167.771225 157.278580,170.202484   C158.956421,170.582077 160.122040,171.478363 159.876129,168.454987   C160.048676,167.957047 160.262466,167.847107 160.801086,167.893738   C160.719604,170.085983 161.085007,171.907516 162.316589,173.727020  z"
  />
  <path
    fill="currentColor"
    opacity="1.000000"
    stroke="none"
    d=" M166.407745,136.460541   C166.836487,136.089905 167.062775,136.074005 167.628464,136.034164   C168.762177,136.959000 169.458710,138.145142 171.232880,137.610077   C169.105515,142.738464 169.824677,148.174347 168.162689,153.156982   C167.045349,156.506805 165.898148,159.811523 164.151123,163.208588   C163.595825,163.409882 163.322006,163.417725 162.638519,163.390900   C160.319855,161.286850 161.847641,159.253204 162.503952,157.387711   C164.851868,150.713959 167.366257,144.107162 166.407745,136.460541  z"
  />
  <path
    fill="currentColor"
    opacity="1.000000"
    stroke="none"
    d=" M125.118378,171.976379   C126.759850,174.708633 123.924278,174.273849 122.935478,174.918457   C116.084213,179.384842 115.719177,188.339218 122.665840,193.008240   C123.098022,193.430054 123.213455,193.704041 123.120102,194.372131   C118.762344,193.350342 114.904968,191.848206 114.932907,186.292007   C114.973831,178.155655 117.033676,174.931900 125.118378,171.976379  z"
  />
  <path
    fill="currentColor"
    opacity="1.000000"
    stroke="none"
    d=" M123.253937,194.882980   C122.920921,194.497757 122.930519,194.229294 122.961349,193.558441   C127.386993,192.835312 131.418182,194.842819 135.767715,195.275070   C139.369949,195.633087 142.725800,195.168320 146.604645,195.079102   C147.358246,195.483307 147.489395,195.882645 147.227707,196.605347   C139.071320,197.978882 131.282013,197.141434 123.253937,194.882980  z"
  />
  <path
    fill="currentColor"
    opacity="1.000000"
    stroke="none"
    d=" M172.561630,153.120087   C173.086212,152.962204 173.304337,152.978745 173.849319,153.024338   C174.440491,154.384918 175.524155,153.812256 176.625458,153.904938   C176.988327,154.062042 177.021255,154.279541 177.115692,154.821289   C177.177170,155.145508 177.150223,155.103668 177.167206,155.115295   C176.823441,155.193314 176.543747,155.380768 176.203064,155.912674   C174.445557,157.850693 172.824173,159.559662 171.216995,161.281876   C170.461746,162.091171 169.702911,163.511658 168.515671,162.632919   C167.506424,161.885895 168.141495,160.692398 168.831253,159.613373   C170.118179,157.600189 171.129272,155.410660 172.561630,153.120087  z"
  />
  <path
    fill="currentColor"
    opacity="1.000000"
    stroke="none"
    d=" M147.330872,196.931458   C147.012146,196.485229 147.008255,196.105972 147.011383,195.442307   C149.722321,194.464767 152.426239,193.771637 155.781403,193.355270   C156.821686,198.695084 152.888519,199.565796 149.034241,200.832321   C148.455322,200.529785 148.249573,200.269897 147.766861,199.595306   C148.261475,198.648987 149.436310,198.511200 149.452713,197.292816   C149.453934,197.202805 148.275635,197.096909 147.330872,196.931458  z"
  />
  <path
    fill="currentColor"
    opacity="1.000000"
    stroke="none"
    d=" M151.381042,219.926987   C151.259796,219.433289 151.518524,219.013718 151.880829,218.369995   C152.584808,216.759583 153.990646,216.386047 155.403854,215.486267   C158.722092,214.170273 159.913162,210.742508 163.477676,209.794952   C162.133423,216.058212 157.473663,218.681656 151.381042,219.926987  z"
  />
  <path
    fill="currentColor"
    opacity="1.000000"
    stroke="none"
    d=" M240.963867,160.721313   C240.187225,160.985092 239.515900,160.989044 238.508942,160.985764   C237.438263,160.412415 237.305222,159.660812 237.724365,158.463608   C238.143677,156.815445 237.605835,155.297241 239.432404,154.256561   C241.198364,154.741608 242.121506,155.673004 242.150604,157.557770   C242.031067,158.322342 242.015884,158.758682 241.992172,159.522385   C241.678818,160.053665 241.374008,160.257599 240.963867,160.721313  z"
  />
  <path
    fill="currentColor"
    opacity="1.000000"
    stroke="none"
    d=" M205.259415,195.959991   C205.290726,195.385941 205.546417,194.899399 205.876007,194.147858   C206.926926,191.306412 208.709778,192.799942 210.566956,193.225464   C211.030746,193.626099 211.170578,193.834122 211.338547,194.416016   C210.849060,196.214218 210.340027,197.646103 208.203918,197.981277   C207.292404,197.777527 206.753082,197.572937 206.063583,197.111084   C205.950043,196.489227 205.806839,196.220459 205.259415,195.959991  z"
  />
  <path
    fill="currentColor"
    opacity="1.000000"
    stroke="none"
    d=" M161.876984,162.999054   C162.432327,163.057861 162.723740,163.108276 163.442413,163.280365   C164.478119,165.473145 162.952499,166.513779 161.453903,167.888062   C160.910706,168.048416 160.695465,168.046555 160.157547,168.055847   C158.280960,166.878220 159.293213,165.211563 159.107025,163.398941   C159.177261,163.016724 159.651901,163.003906 159.887787,162.976990   C160.630096,162.597733 161.123398,162.727829 161.876984,162.999054  z"
  />
  <path
    fill="currentColor"
    opacity="1.000000"
    stroke="none"
    d=" M175.742554,125.721939   C177.117432,129.307999 173.165543,131.385361 172.419403,134.866989   C171.885910,135.144073 171.673264,135.256195 171.155411,135.176331   C171.842148,131.701721 173.390503,128.706512 175.742554,125.721939  z"
  />
  <path
    fill="currentColor"
    opacity="1.000000"
    stroke="none"
    d=" M167.873993,202.886719   C166.951691,205.301758 165.822891,207.527130 164.382080,209.907379   C163.940155,209.941940 163.810242,209.821640 163.485596,209.520691   C163.159531,206.468811 163.648987,203.886566 166.885406,202.364777   C167.391968,202.444336 167.529724,202.570679 167.873993,202.886719  z"
  />
  <path
    fill="currentColor"
    opacity="1.000000"
    stroke="none"
    d=" M170.660614,135.433273   C171.058228,134.992783 171.266266,135.001221 171.786423,135.020798   C172.066772,135.282166 172.035019,135.532379 172.021088,136.160248   C171.319000,136.791092 170.798218,136.568146 170.660614,135.433273  z"
  />
  <path
    fill="currentColor"
    opacity="1.000000"
    stroke="none"
    d=" M148.139389,219.263565   C148.451294,219.112244 148.668732,219.291321 148.915192,219.734344   C148.700043,219.796005 148.400284,219.661240 148.139389,219.263565  z"
  />

  <path
    fill="currentColor"
    opacity="1.000000"
    stroke="none"
    d=" M164.076477,177.590790   C163.684830,178.324158 163.219864,178.643066 162.446503,178.952911   C162.083694,177.513977 162.977798,176.053879 161.975952,174.315796   C165.037552,173.502121 163.585861,175.938965 164.076477,177.590790  z"
  />
  <path
    fill="currentColor"
    opacity="1.000000"
    stroke="none"
    d=" M176.319092,156.053925   C176.260666,155.846329 176.460220,155.556366 176.921997,155.196655   C176.981827,155.408463 176.779434,155.690018 176.319092,156.053925  z"
  />
  <path
    fill="currentColor"
    opacity="1.000000"
    stroke="none"
    d=" M140.065598,180.953094   C140.088242,180.598648 140.052963,180.274933 140.036469,179.950241   C139.941010,178.069168 139.982239,176.217270 142.506866,176.068481   C143.793671,175.992645 144.971436,176.821320 144.796082,178.014954   C144.497574,180.046921 143.351440,181.567429 140.465958,180.922485   C140.076965,180.884949 140.016373,180.983383 140.065598,180.953094  z"
  />
  
  <path
    fill="currentColor"
    opacity="1.000000"
    stroke="none"
    d=" M215.923187,193.619598   C214.656342,194.401474 213.430115,194.839325 211.935699,195.467743   C211.484039,195.236298 211.300552,194.814301 210.916611,193.731766   C212.512909,191.918442 214.373352,189.129623 215.923187,193.619598  z"
  />
</svg>
