<svg
  xmlns="http://www.w3.org/2000/svg"
  xmlns:xlink="http://www.w3.org/1999/xlink"
  version="1.1"
  id="Layer_1"
  x="0px"
  y="0px"
  width="100%"
  viewBox="0 0 464 464"
  enable-background="new 0 0 464 464"
  xml:space="preserve"
>
  <path
    fill="currentColor"
    opacity="1.000000"
    stroke="none"
    d=" M99.791885,407.961304   C100.083443,401.955719 95.762115,397.681091 95.440117,392.307892   C94.926514,383.737427 93.024155,375.302643 93.486923,366.618134   C93.892822,359.000702 93.535751,351.345154 93.629272,343.707825   C93.748322,333.986816 98.007599,325.438477 101.873909,316.897125   C103.539642,313.217194 105.622406,309.589478 107.883194,306.094177   C110.030144,302.774811 107.128677,298.689270 105.676605,294.382233   C102.093056,298.203857 100.846413,302.298035 99.597885,306.366730   C98.872360,308.731049 97.842926,311.251617 95.043579,310.609344   C91.961273,309.902191 92.739822,307.103485 93.227242,304.776855   C94.180710,300.225586 92.609367,295.592346 94.510262,291.295349   C91.318932,290.104248 90.409760,292.125641 89.197258,293.292755   C84.264793,298.040680 79.958084,303.350433 75.777306,308.751984   C74.199654,310.790283 72.412498,312.276459 69.883553,311.057892   C67.283257,309.804993 68.199989,307.370056 68.736679,305.307281   C71.097290,296.234070 76.049919,288.637421 82.250847,281.751678   C83.315971,280.568939 84.973991,279.761414 85.075951,277.623047   C82.141281,275.873535 79.303535,277.468262 76.550758,278.084473   C72.807663,278.922394 69.330147,280.567291 65.922318,282.356873   C63.927334,283.404572 61.952854,282.944855 60.560352,281.163849   C59.345791,279.610474 60.250778,278.216217 61.563248,277.336182   C69.119926,272.269470 76.040443,266.186676 85.443825,264.255035   C89.144730,263.494781 92.713348,263.685059 96.330582,263.663849   C99.976891,263.642426 102.316528,262.325134 103.500648,258.782013   C106.784767,248.955322 109.172745,238.654236 104.076553,229.223099   C97.957077,217.898239 100.120758,206.635956 101.837250,195.242310   C103.055809,187.153778 109.568672,181.458771 116.092583,181.616043   C120.338020,181.718369 121.828743,183.591827 120.641289,187.706406   C119.544998,191.505127 118.185219,195.227814 116.889229,199.141815   C121.676849,201.419861 126.768852,200.237534 131.254471,202.258041   C134.642380,203.784088 137.884537,205.294037 140.417923,208.082733   C144.516479,212.594345 146.159119,212.918854 150.903885,209.167877   C155.104630,205.846939 159.320236,202.597977 164.182022,200.340576   C168.654129,198.264130 173.372498,195.199768 178.171143,198.880676   C183.816650,203.211136 185.977890,209.248978 183.859924,216.213379   C181.379684,224.369125 178.020065,231.820343 168.310501,233.884293   C164.026276,234.794968 162.534775,238.069672 163.813080,242.248611   C164.725052,245.229980 164.438904,248.194992 164.154404,251.157120   C163.953705,253.246918 162.341583,256.552734 164.162949,257.119659   C167.806427,258.253784 170.307419,262.927460 174.929153,260.907104   C187.978775,255.202576 195.864182,253.835632 197.146561,238.295319   C198.048935,227.359787 201.036346,217.112839 204.167160,206.811264   C206.528625,199.041122 203.908508,191.626541 203.771042,184.032974   C200.979736,183.960236 200.031601,185.764359 198.659927,186.872238   C195.970490,189.044449 193.931946,188.826187 192.372559,185.496201   C191.072098,182.719147 190.339203,179.854614 190.442932,176.814713   C191.218719,154.080811 182.861023,133.575180 174.893143,112.976219   C174.478683,111.904739 173.936356,110.837288 173.240082,109.932198   C172.439926,108.892090 171.483627,107.771828 169.959366,108.000786   C168.041809,108.288818 167.962738,110.039986 167.620895,111.441795   C167.388336,112.395523 167.393936,113.429024 167.426514,114.422478   C167.959167,130.665894 169.104721,146.825653 172.179871,162.847702   C173.540314,169.935837 173.711380,177.262344 174.235428,184.494171   C174.375595,186.428604 173.115814,187.989517 171.323425,188.811371   C169.377838,189.703445 167.569870,189.471832 165.723129,188.151459   C158.619110,183.072205 153.866089,184.314713 150.455154,192.137955   C149.492447,194.345993 148.423721,196.333191 145.753799,194.955185   C143.297348,193.687347 143.022751,191.592545 144.401871,189.031143   C152.588776,173.825912 151.134705,158.366272 145.025116,143.009369   C143.206558,138.438278 140.349182,134.280457 137.824585,129.671829   C134.230713,131.830582 135.262329,135.005615 135.955399,137.295349   C140.603638,152.651901 135.704147,168.007736 136.254639,183.343201   C136.320755,185.184799 135.367554,186.764328 133.365692,186.712921   C131.422958,186.663010 131.150528,184.828400 131.176971,183.342468   C131.259918,178.683121 130.850327,173.883347 131.828125,169.398895   C133.872879,160.021347 131.852707,150.835770 131.298386,141.615295   C130.664200,131.066269 127.520622,120.959198 122.626762,111.625084   C118.453972,103.666275 113.692871,95.975563 108.680183,88.509926   C104.478508,82.252167 98.174522,78.378517 91.092247,75.906372   C86.591133,74.335220 84.994530,75.404846 84.337753,79.967819   C79.971672,110.301094 87.071426,137.655289 105.607574,162.050308   C108.644524,166.047180 111.984856,169.731033 116.071068,172.714035   C117.367043,173.660141 119.189117,174.888443 117.885956,176.742905   C116.467758,178.761047 114.871201,177.040665 113.614563,176.158173   C104.773842,169.949677 99.375328,160.924271 93.836220,151.980896   C79.509491,128.849121 77.803528,103.484871 80.472519,77.337395   C80.652046,75.578690 79.877541,74.082001 79.756584,72.450638   C79.560661,69.808105 80.818161,66.850006 83.452271,67.932968   C94.113564,72.316162 105.768974,75.280037 112.742561,85.810593   C116.963135,92.183929 121.455101,98.382057 125.775864,104.674622   C132.541183,114.527313 140.857452,123.290848 146.111023,134.235748   C150.253922,142.866776 153.863068,151.349838 153.561768,161.311523   C153.376709,167.430130 154.703995,173.639572 156.429962,180.068176   C158.800797,181.362320 162.076157,180.358276 165.163513,181.048996   C168.585510,181.814575 168.758621,178.571777 168.549347,176.364380   C167.986267,170.425064 167.132309,164.507919 166.229477,158.607117   C161.569839,128.152588 159.814178,97.870468 170.187546,68.034882   C173.792847,57.665405 176.754501,47.103405 182.424362,37.545746   C188.967743,26.515600 199.223923,21.367746 211.141815,18.644016   C212.460327,18.342684 213.757584,18.556402 215.031281,19.145807   C218.783539,20.882168 222.505508,20.378540 226.129562,18.722477   C229.690063,17.095469 232.325241,17.186258 232.822128,21.924623   C233.053024,24.126339 234.375839,25.740158 236.318253,26.451942   C243.124802,28.946167 245.037674,34.645531 246.094009,40.928684   C246.780426,45.011677 247.204727,49.140484 247.953430,53.210697   C248.523010,56.307171 246.650803,58.410740 245.003754,60.318352   C234.251129,72.772034 228.294739,87.488113 224.915421,103.286880   C223.793304,108.532898 223.246033,114.175858 225.727585,119.438133   C226.577026,121.239403 226.371323,122.951408 225.580765,124.724533   C220.698593,135.674759 216.347198,146.838699 211.996033,158.008652   C210.373184,162.174713 210.293304,166.338913 209.894745,170.592896   C212.283157,171.253403 212.618317,169.366882 213.364532,168.268402   C233.069397,139.261459 260.320435,121.951355 294.681152,115.485268   C305.348999,113.477768 315.838104,115.569580 326.420563,116.055054   C334.103851,116.407516 341.089539,119.964699 349.276276,120.521370   C348.891785,113.535103 346.117859,107.609131 344.978516,101.350304   C343.204254,91.603714 347.543030,82.113724 355.741180,78.251274   C358.347229,77.023468 360.838501,76.857491 363.435120,77.758324   C377.235687,82.546104 385.994293,91.569092 388.570251,106.430206   C389.532166,111.979713 390.023071,117.315788 388.065430,122.528564   C386.459747,126.804176 383.948090,130.589447 378.643188,131.021301   C376.907715,131.162567 375.347900,131.627151 374.563171,134.386673   C376.901367,136.580322 379.503113,139.089813 382.178223,141.518494   C391.457428,149.942917 397.950134,160.047928 402.668671,171.747162   C405.949615,179.882034 409.189911,187.681122 408.441071,196.614075   C408.282043,198.510925 409.441925,199.660980 411.039154,200.501419   C430.645447,210.817795 440.055725,227.957901 443.444672,249.082428   C445.256622,260.376831 446.699188,271.685059 446.402008,283.193787   C445.976288,299.682556 442.222473,315.425079 436.303925,330.687225   C428.646515,350.433411 417.383850,368.018646 403.780090,384.195618   C397.109467,392.127991 388.811615,397.301819 378.923035,400.041504   C374.619385,401.233856 373.162537,399.913605 373.964783,395.680817   C376.277832,383.476776 375.529694,371.227478 374.606567,358.970306   C374.488495,357.402435 373.932098,356.113617 372.837952,355.201508   C370.789246,355.295807 370.517456,356.570862 370.406158,357.971802   C369.791138,365.714325 366.813812,372.811707 364.236877,379.994690   C362.723145,384.214050 360.564697,384.247314 357.321960,381.155182   C353.845764,377.840485 352.832947,374.208771 353.509674,369.516357   C354.439453,363.068909 355.694550,356.755493 358.101837,350.693298   C359.619690,346.871033 360.315613,343.941528 356.294281,340.289154   C352.840240,337.152008 351.527039,331.658813 349.262756,327.209717   C348.899414,326.495728 348.513031,325.793488 347.813660,324.476227   C344.115082,328.012085 342.227478,332.235565 340.164062,336.227325   C333.209686,349.680969 326.765442,363.451660 318.288055,376.013062   C312.156097,385.099121 305.660522,394.305847 297.157562,401.185089   C288.178528,408.449432 278.868744,415.579926 268.358673,420.749329   C265.218719,422.293762 262.090698,423.045349 259.038452,420.415375   C258.447388,419.906128 257.419769,419.377319 256.768829,419.543671   C248.673828,421.612122 240.190323,417.575195 232.052826,421.924438   C222.953430,426.787842 216.319412,433.528015 212.193481,442.814453   C211.123077,445.223663 210.205917,447.291229 207.203812,447.688660   C205.341522,447.935150 204.787842,449.670105 204.046616,451.219421   C202.641785,454.155792 201.640518,457.646515 197.214081,457.363678   C192.671127,457.073395 186.380508,453.194031 185.488998,449.479553   C183.960648,443.111816 184.192917,436.677185 185.853607,429.975708   C178.811676,428.088837 180.291855,423.099670 182.344711,417.249023   C175.938385,418.736847 170.258499,420.191498 164.421555,420.869171   C158.972855,421.501740 153.912491,421.334991 148.777756,419.358276   C143.506577,417.329010 138.083572,415.692383 132.718246,413.910339   C130.599930,413.206757 128.476151,413.034332 128.330673,416.022278   C127.969284,423.445831 126.243477,430.858582 128.346756,438.321594   C129.035278,440.764679 130.086670,442.964142 131.183517,445.202332   C131.962372,446.791626 132.050156,448.578491 130.500107,449.760956   C129.025101,450.886200 127.296288,450.676788 125.904678,449.468872   C116.032097,440.899414 106.905075,431.777252 102.333862,419.049744   C101.078789,415.555176 100.592690,411.957306 99.791885,407.961304  M204.361816,235.720154   C204.240295,237.043655 203.973938,238.372406 204.021790,239.689758   C204.252823,246.051987 199.190048,250.508713 198.097916,256.387573   C196.243546,266.369293 193.091461,276.002594 190.094238,285.671936   C189.567886,287.369934 189.491867,288.870880 190.159439,290.495453   C193.503479,298.633545 193.129440,306.587891 189.525604,314.645844   C188.205734,317.596985 187.253372,320.858032 187.215073,324.295288   C187.192856,326.288757 186.356018,328.727112 183.805527,328.280487   C181.079102,327.803009 181.841904,325.451874 182.203094,323.414215   C183.605850,315.500671 184.438904,307.556946 182.882950,298.494263   C181.870224,302.149109 179.625702,302.870453 177.450958,303.703613   C175.062790,304.618591 172.729416,305.791046 171.981842,308.427216   C170.766129,312.714081 168.861938,315.029358 164.142807,312.424225   C162.764481,311.663330 161.258087,312.682465 159.802399,312.915375   C155.284378,313.638214 150.683212,315.685303 146.169220,313.659790   C142.122162,311.843781 139.141220,313.095612 136.241760,315.749359   C129.485245,321.933289 129.487213,321.922974 121.533920,316.815643   C120.274765,316.007080 118.977547,315.248627 117.652176,314.554352   C115.429016,313.389771 113.315773,313.614563 111.977219,315.819702   C110.432991,318.363708 108.385643,320.510468 107.147133,323.334076   C100.905212,337.564819 98.154190,352.539490 101.619690,367.559235   C106.862160,390.280457 117.398773,404.622620 138.504639,408.670044   C159.542435,412.704346 180.320465,410.813965 201.032715,405.671967   C209.159088,403.654510 216.276840,399.189880 226.061798,400.952881   C236.422104,402.819550 246.808014,404.954224 257.233368,406.649323   C268.513397,408.483429 279.371613,407.251770 288.035522,398.472687   C292.709381,393.736694 297.420227,389.037079 302.126312,384.333008   C308.528351,377.933746 314.012848,370.847229 318.042847,362.717682   C323.289642,352.133606 328.325592,341.444000 333.653564,330.901520   C339.755127,318.828308 348.471252,308.418152 355.621521,297.002930   C358.691315,292.102051 361.112091,286.670227 365.919647,283.013489   C371.222260,278.980286 375.140930,273.743073 377.558044,267.651550   C384.764587,249.489761 394.647461,232.378143 398.346100,212.821838   C400.212646,202.952682 401.932556,193.119995 400.101471,183.214111   C397.499725,169.139099 389.561523,157.527390 379.826691,147.725113   C365.115875,132.912415 347.399658,122.868408 326.148560,120.602203   C313.768951,119.282059 301.341949,118.158432 289.001617,121.323273   C262.786499,128.046463 241.521118,142.568832 224.110138,162.899765   C217.492737,170.626953 213.001648,179.485687 214.291748,190.266113   C214.464462,191.709320 214.318817,193.326645 213.835129,194.691238   C209.212585,207.732422 206.583389,221.231949 204.361816,235.720154  M383.312531,278.659576   C380.229553,284.955505 374.910278,289.784393 371.871429,296.146667   C371.241333,297.465912 369.382233,298.260742 367.991364,299.142365   C363.654480,301.891449 360.250854,305.111237 359.377899,310.644592   C358.789490,314.374268 357.213409,317.955414 356.004456,321.578125   C354.233582,326.884552 355.478607,329.454590 360.950317,331.366730   C364.062531,332.454315 366.472656,334.427582 366.243439,337.803864   C365.957397,342.017365 368.062897,343.950470 371.572632,344.971924   C375.964355,346.250092 378.411621,349.571564 378.999634,353.590057   C380.145081,361.418365 381.143860,369.366516 381.027771,377.247711   C380.945312,382.847992 380.087585,388.366577 382.065369,393.976379   C386.560394,392.478241 390.349365,389.927399 393.842072,386.742279   C404.066742,377.418030 411.707947,366.134583 418.607880,354.302856   C433.897308,328.085144 443.674194,300.437164 440.787354,269.410736   C440.479126,266.097931 439.555298,262.923553 439.462769,259.576233   C439.091309,246.141678 435.033386,233.777328 427.752930,222.544067   C423.569489,216.089325 417.899353,211.049973 411.136108,206.534775   C408.195404,211.683807 409.543030,216.764084 409.422119,221.598816   C408.962250,239.984268 403.597809,256.253143 389.591034,268.925232   C386.813141,271.438446 384.714417,274.373596 383.312531,278.659576  M194.125763,44.606525   C184.605042,58.532978 180.224762,74.688194 174.488281,90.237251   C172.261169,96.273880 173.525940,101.932777 177.970810,106.832207   C180.012787,109.083031 180.744339,112.056267 181.710495,114.907013   C184.635910,123.538704 187.585709,132.170319 190.895615,140.657806   C191.734283,142.808395 191.247452,145.714996 193.648636,147.226074   C195.649414,146.418549 195.876205,144.851624 196.366592,143.214600   C199.358749,133.226028 201.999237,123.203018 206.297607,113.544853   C213.502747,97.355354 225.134338,83.660545 231.403320,66.970573   C233.122482,62.393600 235.767868,58.140228 237.199860,53.309875   C240.645416,41.687447 234.295639,33.263203 227.967072,29.074327   C220.365265,24.042686 210.847412,25.966806 203.586823,33.400017   C200.344437,36.719509 197.540787,40.467545 194.125763,44.606525  M110.569687,202.972336   C110.617455,199.153778 112.953369,195.513229 111.875641,191.579941   C110.270500,191.538055 109.598442,192.339081 109.192001,193.235519   C104.848015,202.816544 103.246033,212.590469 107.596466,222.619232   C108.656631,225.063126 109.806549,227.426529 110.422905,230.054504   C112.727058,239.878784 111.493004,249.502563 108.961411,259.063232   C108.518745,260.734955 108.018967,262.375977 109.681145,263.608093   C111.334709,264.833801 112.991714,264.458801 114.841591,263.696136   C123.066216,260.305298 124.882935,261.236420 127.114868,269.676941   C127.369339,270.639221 127.337517,271.698273 127.702248,272.606506   C128.923431,275.647430 130.030945,278.294861 134.563171,276.850739   C138.112335,275.719818 142.094666,275.858643 145.896378,275.630615   C151.761734,275.278809 156.384857,271.228943 156.661346,265.283936   C156.842239,261.394653 157.555893,257.702362 158.733383,254.065567   C159.633926,251.284180 159.577225,248.634705 158.985748,245.750336   C157.799469,239.965408 154.970093,234.882797 152.588089,229.630478   C149.545380,222.921295 146.345520,216.235962 138.336823,213.791885   C135.375641,212.888184 133.882156,209.342758 130.757248,208.649734   C128.718292,209.838409 128.592148,211.634018 128.271561,213.483963   C127.663467,216.992859 122.405647,220.921707 118.713425,220.774506   C113.915817,220.583237 111.455200,217.675354 110.839699,213.256073   C110.406746,210.147537 110.570724,206.955841 110.569687,202.972336  M160.337646,282.099518   C157.917404,279.697418 155.196381,280.001617 152.529022,281.452301   C148.314438,283.744476 144.092010,286.047760 140.046539,288.619507   C133.853668,292.556427 128.566071,291.340149 125.500801,284.946991   C123.735374,281.264893 120.780869,279.212921 116.827377,279.700958   C113.236519,280.144226 110.692947,285.135742 111.310219,289.325287   C111.720757,292.111694 112.010498,294.918915 112.510574,297.688599   C114.381020,308.047913 125.108734,314.652374 133.603439,310.496216   C140.545029,307.099976 147.459198,305.779297 155.224640,307.516235   C163.485321,309.363922 169.063095,302.756256 166.629929,294.734985   C165.318176,290.410645 163.393799,286.369049 160.337646,282.099518  M370.800629,86.677460   C369.483429,85.965141 368.166077,85.253143 366.849091,84.540459   C360.898773,81.320496 356.561066,82.453423 353.013977,88.154228   C347.339630,97.273888 351.841339,116.130005 361.318634,122.009521   C361.047028,114.797615 364.952606,109.295540 368.334503,103.606026   C369.466064,101.702385 371.330627,100.615746 373.403595,101.806984   C375.677185,103.113495 374.283356,104.996361 373.474487,106.579338   C372.339539,108.800545 371.052795,110.944145 369.915863,113.164413   C367.746857,117.400230 369.153137,123.025047 372.794922,124.897156   C375.982513,126.535789 381.130951,123.603683 382.965240,119.065277   C383.272186,118.305916 383.530396,117.484558 383.592804,116.675018   C384.511383,104.762970 380.460510,94.878052 370.800629,86.677460  M214.683212,410.257812   C209.131134,411.131866 203.899078,413.203583 198.170975,413.740082   C192.738235,414.248901 189.227890,418.670319 186.456085,423.197937   C188.537994,425.621735 190.307159,425.075470 192.260284,424.168884   C195.303802,422.756165 197.973877,420.796570 200.734833,418.940460   C202.866653,417.507233 205.308121,417.094574 206.632645,419.941772   C207.775650,422.398743 206.291031,424.173737 204.047562,425.030579   C201.358337,426.057617 199.028717,427.614471 196.733368,429.265381   C190.001602,434.107147 188.538193,438.312805 190.499069,446.440643   C191.043579,448.697662 192.492813,449.795258 194.473572,450.466095   C195.986603,450.978516 197.413193,450.342224 197.780701,449.014587   C199.645721,442.276947 206.235031,439.389221 209.736099,433.984589   C217.526733,421.958069 228.606216,415.121704 242.888397,413.491608   C244.254028,413.335754 245.827667,413.108154 246.457291,411.158661   C236.188095,406.754547 225.907440,406.117371 214.683212,410.257812  M208.783951,124.242012   C206.098007,133.610092 202.484818,142.729095 200.881027,152.383667   C200.225342,156.330719 201.020966,160.171707 203.092072,164.229156   C206.289566,159.726685 206.711792,155.179443 207.865601,150.898590   C211.090927,138.932022 217.237991,127.819496 218.212555,115.178505   C218.355026,113.330399 218.627014,111.846581 216.560654,111.162231   C214.540604,110.493225 213.887589,112.116806 213.301590,113.437691   C211.823593,116.769279 210.492294,120.165947 208.783951,124.242012  M198.342499,28.127335   C187.734543,34.833817 182.812408,45.203098 179.950821,56.927853   C186.113327,46.633175 192.896851,36.815830 201.564835,28.645666   C200.460281,27.165941 199.684509,27.568100 198.342499,28.127335  M187.748367,275.082184   C189.089279,272.211365 190.162689,269.237976 190.592529,266.097900   C190.965515,263.373230 189.773865,261.896759 186.867554,262.390625   C179.788696,263.593536 178.043045,267.327393 181.789734,273.168152   C182.238892,273.868317 182.660507,274.589508 183.154404,275.256958   C184.382126,276.916107 185.779800,277.174988 187.748367,275.082184  M122.083351,428.500488   C119.448402,423.586639 113.659943,422.921387 110.056740,419.257080   C111.854179,426.904297 116.854942,432.264099 122.324783,438.225830   C122.324783,434.759338 122.324783,431.994141 122.083351,428.500488  M178.832306,286.869598   C177.980392,285.685486 177.343445,284.240875 175.304047,284.112000   C173.532440,287.618134 174.706894,291.449371 173.864105,295.125885   C180.996948,294.312103 181.530869,293.490265 178.832306,286.869598  M364.416779,354.690094   C360.607849,359.452209 358.914825,364.768188 360.050751,372.336029   C363.716034,366.135101 364.421295,360.586273 364.416779,354.690094  M164.463364,273.052612   C161.991989,270.586151 160.108109,270.518372 158.761520,274.847168   C163.189316,275.159180 163.888474,280.542267 168.298737,281.270081   C168.376236,280.446381 168.618423,279.870789 168.431259,279.533356   C167.316513,277.523468 166.102524,275.568604 164.463364,273.052612  M94.961815,280.903839   C95.837936,279.718964 96.686493,278.338013 94.176247,278.498749   C91.260933,278.685425 85.770493,284.951294 85.138908,288.718292   C89.098831,287.102081 91.368103,283.640656 94.961815,280.903839  M89.114853,268.510651   C87.818085,268.974213 86.120277,268.532318 85.174049,270.408539   C88.140900,272.018860 90.606125,270.739227 93.358246,269.618256   C92.366707,267.718262 90.999870,268.361511 89.114853,268.510651  z"
  />
</svg>
