<svg
  xmlns="http://www.w3.org/2000/svg"
  xmlns:xlink="http://www.w3.org/1999/xlink"
  version="1.1"
  id="Layer_1"
  x="0px"
  y="0px"
  width="100%"
  viewBox="0 0 1285 1285"
  enable-background="new 0 0 1285 1285"
  xml:space="preserve"
>
  <path
    fill="none"
    opacity="1.000000"
    stroke="currentColor"
    stroke-linecap="round"
    stroke-linejoin="round"
    stroke-width="3.000000"
    d=" M1049.500000,398.500000   C1052.503418,406.786713 1053.821167,415.508057 1055.893311,424.025940   C1058.502563,434.751617 1060.501953,445.636322 1062.458984,456.507385   C1065.124023,471.311035 1067.109497,486.247253 1070.148193,500.969421   C1071.937988,509.641113 1073.783447,518.313416 1075.672241,526.962402   C1078.242798,538.733398 1079.516113,550.669312 1081.382324,562.518555   C1083.706299,577.274597 1085.214478,592.161011 1086.983765,607.001953   C1088.234375,617.491943 1089.111328,628.030945 1090.570923,638.490112   C1091.717529,646.706116 1093.640259,654.810547 1094.968750,663.005066   C1097.237183,676.997803 1101.693237,690.420166 1105.597168,703.971985   C1107.898071,711.958740 1110.962280,719.747986 1114.040283,727.484009   C1121.751831,746.865784 1129.583130,766.201050 1137.528564,785.488220   C1143.046631,798.882812 1148.860352,812.155334 1154.493774,825.502625   C1163.341797,846.466003 1171.627075,867.646545 1179.580688,888.969910   C1186.420532,907.307434 1191.888428,925.992859 1196.633423,944.966614   C1199.761719,957.476318 1203.575073,969.889893 1208.126343,981.952332   C1216.904297,1005.217102 1227.040161,1027.929688 1237.417114,1050.538086   C1244.516846,1066.005859 1250.990845,1081.769409 1257.401367,1097.540039   C1259.257812,1102.107300 1261.887939,1106.456665 1262.500000,1111.500000  "
  />
  <path
    fill="none"
    opacity="1.000000"
    stroke="currentColor"
    stroke-linecap="round"
    stroke-linejoin="round"
    stroke-width="4.000000"
    d=" M496.500000,436.500000   C500.051727,434.649292 503.629852,436.476349 506.419006,437.686676   C528.798767,447.398102 549.282349,459.949799 563.416687,480.557129   C570.168335,490.400787 576.471252,500.765930 580.277161,512.075012   C583.593933,521.930481 585.529785,532.537598 584.315186,542.978516   C582.859314,555.493286 581.566162,568.045166 579.736267,580.534607   C578.677612,587.760010 578.631470,595.230530 577.444946,602.491028   C573.671814,625.579529 567.087402,647.769836 557.150452,669.070190   C550.703430,682.889709 544.678345,697.290405 545.672668,712.989075   C546.441101,725.121216 548.301880,737.323608 557.006714,746.993958   C563.531799,754.242920 571.620972,758.483948 580.905090,761.768311   C594.166748,766.459839 607.556213,769.603760 621.502075,769.903503   C636.908142,770.234680 652.198914,768.190125 667.514709,766.645569   C673.955200,765.996033 680.511047,766.122009 687.001892,765.520264   C697.999939,764.500305 709.083130,764.501465 720.012024,762.567810   C722.597717,762.110229 725.333313,762.500000 728.000000,762.500000  "
  />
  <path
    fill="none"
    opacity="1.000000"
    stroke="currentColor"
    stroke-linecap="round"
    stroke-linejoin="round"
    stroke-width="5.000000"
    d=" M423.000000,1179.750000   C413.333344,1175.833374 403.721283,1171.774292 393.985352,1168.038208   C383.315887,1163.943726 372.400208,1163.616699 360.975250,1164.750488   C347.342621,1166.103271 335.308685,1171.442749 322.987274,1176.468750   C308.808960,1182.252319 295.145630,1189.087036 281.437225,1195.873169   C276.134094,1198.498657 269.824677,1198.421997 263.987793,1198.821411   C254.488800,1199.471313 245.934662,1202.921631 237.550339,1206.614258   C214.795044,1216.636353 192.186096,1226.972168 169.048477,1236.122559   C163.554611,1238.295288 158.542130,1241.807861 153.533890,1245.052368   C148.197845,1248.509155 142.501434,1250.969727 136.535583,1253.099731   C131.858246,1254.769653 127.516396,1257.368530 122.988136,1259.474487   C121.901527,1259.979858 120.666656,1260.166626 119.499992,1260.500000  "
  />
  <path
    fill="none"
    opacity="1.000000"
    stroke="currentColor"
    stroke-linecap="round"
    stroke-linejoin="round"
    stroke-width="3.000000"
    d=" M952.500000,644.000000   C955.419312,644.846313 957.290100,647.136475 959.615845,648.841980   C969.311707,655.951782 977.295898,664.575989 982.870422,675.068848   C988.160400,685.025757 992.912109,695.440491 993.439026,707.002808   C993.992004,719.135437 989.616699,729.961304 981.861877,738.879944   C972.912292,749.172607 964.816284,760.122437 956.021301,770.518005   C951.605042,775.737915 945.632874,778.258423 939.491943,780.477722   C921.876709,786.843750 903.240234,789.711426 885.576843,795.725708   C873.558838,799.817749 861.458069,803.710693 849.463501,807.895386   C836.727173,812.338745 823.484863,813.757263 809.998352,812.012695   C805.508789,811.431885 801.007507,810.899231 796.495239,810.563660   C795.201294,810.467468 794.783875,809.582458 794.000000,809.000000  "
  />
  <path
    fill="none"
    opacity="1.000000"
    stroke="currentColor"
    stroke-linecap="round"
    stroke-linejoin="round"
    stroke-width="4.000000"
    d=" M216.000000,196.000000   C209.118225,206.366760 208.856583,218.307632 208.679886,230.002716   C208.545013,238.929184 212.482712,247.091812 216.489548,255.005295   C220.655853,263.233704 228.060196,265.875000 236.405930,268.320984   C242.315399,270.052917 247.982117,270.920776 253.999115,271.043610   C261.960358,271.206177 269.400726,268.946411 277.048004,267.211670   C284.460938,265.530090 291.758087,262.885925 299.545593,262.363525   C299.301544,264.461395 300.390778,265.517151 301.507965,266.490845   C310.969727,274.737610 319.705994,283.715118 330.361816,290.710510   C340.015533,297.048065 348.835236,304.799896 357.390686,312.619598   C363.874969,318.546265 370.553925,324.155914 377.488586,329.514771   C389.917969,339.119904 399.119751,351.879120 410.008270,362.991882   C421.251007,374.466156 433.365234,384.994476 445.491913,395.509308   C453.700897,402.627197 461.813293,409.856323 470.007568,416.991302   C474.905487,421.256073 480.485718,424.752045 484.110474,430.429474   C484.847198,431.583435 486.968170,431.919800 488.505402,432.485321   C496.056671,435.263245 500.177612,442.215576 505.826630,447.196594   C518.541321,458.407867 531.634399,469.372162 541.981934,483.013702   C544.748291,486.660614 548.129028,489.930328 549.500000,494.500000  "
  />
  <path
    fill="none"
    opacity="1.000000"
    stroke="currentColor"
    stroke-linecap="round"
    stroke-linejoin="round"
    stroke-width="4.000000"
    d=" M682.500000,397.500000   C684.572754,392.940979 688.757690,390.051270 691.733276,386.179260   C698.447754,377.441742 693.954346,364.305023 686.545532,358.937134   C674.801636,350.428284 661.986633,344.053925 648.476501,339.063629   C639.251099,335.656036 630.796875,330.718475 622.051514,326.395782   C599.657715,315.326935 578.786377,301.882324 558.837341,286.713959   C541.997498,273.909729 525.109924,261.216248 508.990814,247.510788   C499.708008,239.618027 490.070892,232.118942 481.107513,223.882996   C476.421570,219.577362 471.509552,215.360779 467.297089,210.729767   C464.476044,207.628433 462.675659,202.721252 461.163086,198.442352   C457.810303,188.957993 450.593567,182.327957 445.027557,174.480469   C443.864746,172.841080 442.710510,173.033142 440.985443,173.438019   C432.618073,175.401947 425.323181,179.422653 418.480621,184.473770   C415.872772,186.398880 416.606323,189.823563 414.148163,192.156128   C408.081024,197.913177 401.478943,203.294205 397.444855,210.971024   C394.938446,215.740753 393.227417,220.465866 392.528778,225.971939   C391.407806,234.806671 393.630035,243.319656 393.544861,252.000443   C393.520782,254.457047 392.729431,256.373383 391.000000,258.000000  "
  />
  <path
    fill="none"
    opacity="1.000000"
    stroke="currentColor"
    stroke-linecap="round"
    stroke-linejoin="round"
    stroke-width="3.000000"
    d=" M856.500000,306.500000   C863.803711,312.145416 870.415222,318.537231 877.176575,324.809662   C885.270447,332.318329 886.910156,341.335815 885.301575,350.966858   C883.261047,363.184540 880.769531,375.376801 876.091431,387.036682   C871.082214,399.521820 864.496887,411.114594 857.463867,422.477631   C846.656738,439.938416 835.374695,457.091125 823.002075,473.501556   C810.667419,489.861633 797.552429,505.563843 782.961426,519.960876   C774.748718,528.064392 765.762268,535.332275 755.950012,541.419434   C751.140747,544.403015 745.632507,546.097107 739.994385,546.963257   C735.966797,547.581970 732.448975,545.728088 729.015320,543.970093   C726.947571,542.911377 727.611145,540.783325 727.500000,539.000000  "
  />
  <path
    fill="none"
    opacity="1.000000"
    stroke="currentColor"
    stroke-linecap="round"
    stroke-linejoin="round"
    stroke-width="6.000000"
    d=" M589.500000,1063.500000   C586.927795,1062.411011 583.985107,1060.729126 581.595886,1062.621094   C578.523621,1065.054077 578.964966,1069.168701 579.627808,1072.474365   C580.948425,1079.060913 580.960693,1085.495361 579.504639,1092.001099   C577.076294,1102.851074 574.980225,1113.763916 572.134644,1124.535522   C570.022583,1132.530396 567.207275,1140.233765 564.491760,1147.997070   C561.073120,1157.770874 558.357727,1167.681519 556.876160,1177.982178   C556.070679,1183.582031 554.633545,1189.281738 552.343506,1194.430420   C549.317383,1201.234253 547.861023,1208.201660 546.917969,1215.489380   C545.691162,1224.969971 546.215637,1234.540527 544.982910,1243.997803   C544.519348,1247.554077 542.609009,1250.651611 541.533142,1254.010620   C538.767395,1262.645508 536.371826,1271.405884 533.350891,1279.947266   C532.627136,1281.993530 532.920532,1286.122803 528.500000,1285.250000  "
  />
  <path
    fill="none"
    opacity="1.000000"
    stroke="currentColor"
    stroke-linecap="round"
    stroke-linejoin="round"
    stroke-width="4.000000"
    d=" M217.500000,264.500000   C218.692322,269.997955 214.576691,273.272400 211.933945,276.952576   C196.067108,299.048187 179.788406,320.850830 164.117569,343.082855   C158.805191,350.619446 153.764313,358.668152 152.074554,368.013489   C150.574677,376.308777 149.059387,384.694244 152.443359,393.023010   C153.533218,395.705444 154.936783,397.998718 156.984756,400.015472   C162.881790,405.822693 168.845016,411.543610 173.592255,418.436462   C175.355072,420.996033 177.852036,423.419617 180.566376,424.876312   C185.994675,427.789368 187.250824,433.023407 188.370392,438.028992   C190.313202,446.715210 196.464767,452.011871 202.552139,457.441528   C204.035202,458.764374 206.300827,458.351807 207.977463,457.457733   C216.593903,452.862915 225.936157,451.619751 235.473679,450.308502   C247.299622,448.682678 259.214142,447.829865 270.984528,445.905273   C274.486816,445.332611 278.240723,444.707245 281.492004,444.795166   C293.891388,445.130554 305.754913,443.258789 317.521118,439.567352   C326.254242,436.827515 335.530273,437.446625 344.514465,436.096252   C351.107330,435.105286 357.871552,434.328461 364.488342,434.704803   C370.153748,435.027069 375.816040,435.483429 381.500000,435.486115   C383.174347,435.486908 384.896790,435.801270 386.500000,435.000000  "
  />
  <path
    fill="none"
    opacity="1.000000"
    stroke="currentColor"
    stroke-linecap="round"
    stroke-linejoin="round"
    stroke-width="3.000000"
    d=" M242.000000,186.500000   C244.727188,192.545868 243.715103,199.212784 245.169052,205.575623   C247.869598,217.393860 254.865219,225.352570 263.389282,233.121475   C275.609802,244.259369 291.271576,246.036819 306.008209,250.472733   C307.873474,251.034195 309.629059,250.017853 310.962372,248.952911   C317.993225,243.337296 325.166382,237.784515 329.954712,229.972244   C333.014709,224.979874 333.516876,219.049393 334.340179,213.476395   C335.832367,203.375534 332.108124,194.579254 326.066101,186.450851   C318.771973,176.637909 314.031921,165.331345 308.503265,154.498337   C307.148010,151.842834 306.088104,148.997131 304.448975,146.533951   C300.581604,140.722366 296.273834,139.534286 289.500000,142.000000  "
  />
  <path
    fill="none"
    opacity="1.000000"
    stroke="currentColor"
    stroke-linecap="round"
    stroke-linejoin="round"
    stroke-width="5.000000"
    d=" M879.500000,973.500000   C870.795776,979.075806 862.168274,984.820190 851.500793,986.007263   C850.494751,986.119202 849.494629,986.503967 848.500854,986.472656   C841.369446,986.248169 840.772217,986.678894 840.521240,993.500793   C840.273315,1000.239868 837.979370,1006.557251 836.359375,1012.964417   C834.191895,1021.536560 833.282837,1030.549194 827.589355,1038.067627   C822.482178,1044.812134 818.928284,1052.569458 816.044373,1060.516113   C809.780090,1077.777100 800.332092,1093.500366 792.584717,1110.039673   C790.206116,1115.117676 788.802368,1120.656250 787.007080,1126.002319   C784.061951,1134.772705 779.353149,1135.920288 772.500000,1129.500000  "
  />
  <path
    fill="none"
    opacity="1.000000"
    stroke="currentColor"
    stroke-linecap="round"
    stroke-linejoin="round"
    stroke-width="4.000000"
    d=" M430.500000,1188.500000   C429.833344,1188.333252 428.795288,1187.804443 428.553558,1188.052246   C418.628662,1198.228760 405.643890,1203.900757 393.942139,1211.409790   C375.493011,1223.248779 356.640411,1234.457642 338.011353,1246.018311   C328.984039,1251.619995 320.997742,1258.646240 314.145966,1266.625366   C308.024414,1273.753906 300.084625,1278.556885 293.490509,1284.990234   C292.335663,1286.117065 290.820648,1285.231812 289.500000,1285.500000  "
  />
  <path
    fill="none"
    opacity="1.000000"
    stroke="currentColor"
    stroke-linecap="round"
    stroke-linejoin="round"
    stroke-width="3.000000"
    d=" M678.500000,388.500000   C677.275208,388.740356 676.728943,387.186981 674.945618,387.854858   C668.201416,390.380646 663.812439,395.303497 660.044434,401.029236   C659.865173,401.301575 660.384766,401.989197 660.492432,402.501587   C662.677429,412.903717 660.983215,423.512085 662.281555,434.026978   C663.341736,442.613159 667.515381,449.647003 671.136719,456.932037   C676.321472,467.362213 684.854797,475.661926 690.917664,485.550476   C697.937866,497.000366 704.512207,508.736084 710.929688,520.538269   C714.493896,527.093201 719.173523,532.355164 724.820068,537.209290   C727.478699,539.494873 730.571045,536.953613 732.500000,539.500000  "
  />
  <path
    fill="none"
    opacity="1.000000"
    stroke="currentColor"
    stroke-linecap="round"
    stroke-linejoin="round"
    stroke-width="5.000000"
    d=" M750.000000,946.000000   C744.052124,952.192749 740.811096,959.755432 739.021484,968.004639   C737.906067,973.146301 737.689575,978.594055 735.855042,983.445190   C732.156860,993.224426 729.448547,1003.194763 728.037354,1013.505127   C726.175537,1027.107910 723.707825,1040.538940 719.044739,1053.516113   C717.224792,1058.580933 714.590271,1060.723267 709.000793,1061.015503   C690.665344,1061.974243 672.341492,1063.377686 653.995117,1063.773926   C648.359863,1063.895874 642.583496,1061.609985 637.019226,1059.936157   C628.342468,1057.326050 619.586060,1055.768677 610.499268,1055.964966   C604.820923,1056.087402 599.171021,1055.809448 593.482727,1055.149048   C587.005127,1054.396851 586.856934,1054.962036 585.000000,1061.500000  "
  />
  <path
    fill="none"
    opacity="1.000000"
    stroke="currentColor"
    stroke-linecap="round"
    stroke-linejoin="round"
    stroke-width="3.000000"
    d=" M253.500000,2.000000   C256.852539,2.357836 257.993835,5.489466 259.355103,7.593726   C264.480804,15.517106 271.275421,21.549177 278.359741,27.662539   C290.329071,37.991375 303.633942,45.666733 317.944672,52.122673   C328.372803,56.827099 335.639343,64.835060 339.626892,75.954498   C342.507935,83.988441 345.009277,92.163124 348.330261,100.071274   C350.409088,105.021561 351.106415,110.625122 351.925842,116.011284   C352.805450,121.793030 353.843536,127.317467 359.000000,131.000000  "
  />
  <path
    fill="none"
    opacity="1.000000"
    stroke="currentColor"
    stroke-linecap="round"
    stroke-linejoin="round"
    stroke-width="5.000000"
    d=" M186.500000,42.500000   C192.679733,51.089237 202.159592,56.529568 208.047760,65.468544   C220.744644,84.743996 236.425720,101.645088 251.582321,118.927803   C258.299072,126.586739 262.041840,135.462875 264.420563,145.019775   C266.556122,153.599823 263.916595,161.446945 258.939392,168.456970   C256.945984,171.264557 255.311646,173.713013 255.817764,177.524200   C256.116425,179.773224 255.130692,182.451431 253.500000,184.500000  "
  />
  <path
    fill="none"
    opacity="1.000000"
    stroke="currentColor"
    stroke-linecap="round"
    stroke-linejoin="round"
    stroke-width="5.000000"
    d=" M431.000000,1189.500000   C434.930786,1197.571045 437.988464,1205.624512 435.689606,1215.046265   C434.690857,1219.139648 435.113220,1223.676392 434.562805,1228.007935   C433.947998,1232.846313 432.231873,1237.350464 431.076416,1242.018921   C429.323669,1249.100708 426.965424,1256.005493 425.149231,1263.038574   C423.108582,1270.940796 419.185242,1277.722534 415.035736,1284.521851   C414.040985,1286.151855 412.687317,1285.238892 411.500000,1285.500000  "
  />
  <path
    fill="none"
    opacity="1.000000"
    stroke="currentColor"
    stroke-linecap="round"
    stroke-linejoin="round"
    stroke-width="3.000000"
    d=" M461.500000,923.500000   C436.404144,941.157288 409.257416,955.126282 381.502686,968.005798   C375.484009,970.798828 369.500000,973.666626 363.500000,976.500000  "
  />
  <path
    fill="none"
    opacity="1.000000"
    stroke="currentColor"
    stroke-linecap="round"
    stroke-linejoin="round"
    stroke-width="4.000000"
    d=" M850.500000,707.000000   C849.087769,709.589722 846.172485,710.030212 843.968018,711.450317   C825.963135,723.049377 806.186890,731.192261 787.063171,740.627991   C778.764893,744.722412 769.909180,747.560730 761.896179,752.325378   C760.044373,753.426514 757.257141,755.095337 754.500000,753.500000  "
  />
  <path
    fill="none"
    opacity="1.000000"
    stroke="currentColor"
    stroke-linecap="round"
    stroke-linejoin="round"
    stroke-width="3.000000"
    d=" M483.500000,431.000000   C478.428619,432.484528 473.234833,432.557892 467.999847,432.532898   C460.253021,432.495941 452.622681,433.826233 445.004913,435.031036   C431.573883,437.155243 418.221222,439.727997 404.488312,437.574554   C399.190033,436.743744 394.031799,434.703979 388.495758,435.469330   C386.425293,435.755554 386.156769,433.843231 385.500000,432.500000  "
  />
  <path
    fill="none"
    opacity="1.000000"
    stroke="currentColor"
    stroke-linecap="round"
    stroke-linejoin="round"
    stroke-width="3.000000"
    d=" M959.500000,370.500000   C962.869324,383.453705 962.399475,396.851562 964.111267,409.985504   C965.977295,424.302551 966.278198,438.741150 968.727112,453.046722   C970.750732,464.867554 969.385620,477.020447 967.604126,489.015472   C966.017517,499.698486 962.792480,510.036591 962.223511,520.985657   C961.844055,528.288269 959.212341,535.503235 958.970276,542.999023   C958.787231,548.670593 958.820923,554.414001 957.899536,559.983398   C955.922119,571.935547 950.869141,582.693115 944.591064,593.055176   C936.549438,606.328003 929.166138,619.999695 921.508972,633.505066   C921.437439,633.631226 921.555542,633.953613 921.492126,633.982849   C916.544495,636.265808 915.369873,641.229797 912.794067,645.371948   C909.660645,650.410828 904.852539,654.381836 901.092041,659.073792   C899.998901,660.437561 898.927551,660.789856 897.500000,661.000000  "
  />
  <path
    fill="none"
    opacity="1.000000"
    stroke="currentColor"
    stroke-linecap="round"
    stroke-linejoin="round"
    stroke-width="3.000000"
    d=" M750.500000,951.000000   C758.643188,956.423645 768.433899,958.123535 776.958679,962.579041   C791.603760,970.233398 807.537170,974.661987 822.561218,981.362732   C827.505676,983.567871 833.139404,984.298035 838.517700,985.414917   C840.011475,985.725159 840.498779,986.835205 841.500000,987.500000  "
  />
  <path
    fill="none"
    opacity="1.000000"
    stroke="currentColor"
    stroke-linecap="round"
    stroke-linejoin="round"
    stroke-width="3.000000"
    d=" M470.500000,89.500000   C478.890991,96.090317 486.470093,103.403381 491.502411,112.998741   C495.381104,120.394562 497.762115,128.368927 498.829742,136.522293   C499.743225,143.498505 495.593384,149.163391 492.143097,155.083405   C483.886078,169.250824 470.934998,178.574158 459.000000,189.000000  "
  />
  <path
    fill="none"
    opacity="1.000000"
    stroke="currentColor"
    stroke-linecap="round"
    stroke-linejoin="round"
    stroke-width="3.000000"
    d=" M371.500000,123.000000   C376.588745,124.404549 377.242859,128.913330 378.424530,133.114227   C374.005371,138.837387 369.539764,144.697830 364.987823,150.490448   C361.581909,154.824677 359.384613,159.769974 358.067322,165.016907   C356.439941,171.498947 358.526550,176.827789 362.848328,182.123779   C369.016846,189.682816 378.031342,189.965256 386.000519,192.998642   C388.123047,193.806580 390.596008,193.479660 392.500000,195.000000  "
  />
  <path
    fill="none"
    opacity="1.000000"
    stroke="currentColor"
    stroke-linecap="round"
    stroke-linejoin="round"
    stroke-width="3.000000"
    d=" M390.000000,23.000000   C393.950287,17.146389 398.774078,12.134342 404.503296,8.004570   C406.816650,6.337045 408.793335,6.279532 411.562988,7.891810   C425.425415,15.961464 439.721497,23.302094 453.423096,31.626577   C462.751373,37.294014 471.331940,44.212212 479.406555,51.602089   C481.381134,53.409157 482.194580,56.484921 483.846893,59.541714   C479.493103,61.997589 474.734802,62.837334 469.998596,62.923565   C456.426270,63.170677 442.965576,62.206085 429.460358,60.277512   C420.265961,58.964535 410.933197,58.371716 402.583038,54.328484   C395.942474,51.113060 388.989044,49.957199 381.995514,48.521786   C379.850250,48.081474 378.346466,47.280994 377.419800,45.033062   C376.286530,42.283913 377.896362,40.894993 379.524841,39.529633   C382.780090,36.800385 383.444427,32.327766 386.500000,29.500000  "
  />
  <path
    fill="none"
    opacity="1.000000"
    stroke="currentColor"
    stroke-linecap="round"
    stroke-linejoin="round"
    stroke-width="4.000000"
    d=" M931.500000,1163.500000   C925.727783,1163.289551 920.534485,1160.637695 914.988525,1159.558960   C905.010559,1157.618286 894.957214,1155.918213 885.045776,1153.787231   C872.025940,1150.987793 859.259766,1146.898926 846.540710,1142.871460   C842.211670,1141.500488 837.636292,1139.953125 833.445862,1139.488770   C829.892944,1139.095093 825.484070,1139.868896 821.483887,1140.371826   C810.903259,1141.701660 800.366333,1141.719971 790.462769,1136.571533   C788.381958,1135.489868 786.270386,1134.560303 784.500000,1133.000000  "
  />
  <path
    fill="none"
    opacity="1.000000"
    stroke="currentColor"
    stroke-linecap="round"
    stroke-linejoin="round"
    stroke-width="3.000000"
    d=" M772.500000,666.500000   C762.166626,678.333313 751.445435,689.856262 741.640259,702.112244   C735.399109,709.913208 729.623108,718.275635 725.575012,727.532776   C723.435608,732.424988 723.190063,737.470581 724.230713,743.050232   C725.422791,749.441223 728.022644,755.486450 728.500000,762.000000  "
  />
  <path
    fill="none"
    opacity="1.000000"
    stroke="currentColor"
    stroke-linecap="round"
    stroke-linejoin="round"
    stroke-width="3.000000"
    d=" M717.500000,827.500000   C705.203430,833.306335 694.169189,840.904541 684.486816,850.486694   C675.383362,859.495911 670.241516,870.103088 668.260742,882.963135   C666.174255,896.510010 670.596497,907.549622 678.078979,917.943115   C680.750977,921.654663 684.492310,924.242310 688.944153,926.131653   C696.692200,929.419983 704.105164,933.471680 711.979553,936.552307   C720.775391,939.993225 729.222046,944.269531 738.458008,946.662109   C740.894409,947.293274 743.782898,948.318359 745.500000,950.750000  "
  />
  <path
    fill="none"
    opacity="1.000000"
    stroke="currentColor"
    stroke-linecap="round"
    stroke-linejoin="round"
    stroke-width="3.000000"
    d=" M869.500000,833.500000   C875.199829,834.427734 879.473816,838.186890 882.843445,842.133667   C890.452148,851.045532 898.309021,859.643372 906.980347,867.521667   C910.906494,871.088745 913.485352,875.500793 915.681519,880.418945   C917.774231,885.105042 921.301331,889.134460 922.052917,894.492554   C922.177185,895.378601 922.843872,896.331909 923.524048,896.974609   C931.105591,904.138428 932.474426,911.201050 928.000061,920.500061   C925.103088,926.520752 920.834534,931.490906 915.990845,935.990173   C909.249756,942.251831 902.003601,948.003601 896.500000,955.500000  "
  />
  <path
    fill="none"
    opacity="1.000000"
    stroke="currentColor"
    stroke-linecap="round"
    stroke-linejoin="round"
    stroke-width="3.000000"
    d=" M703.000000,191.500000   C697.907227,203.694916 697.308289,216.579239 697.613708,229.497314   C697.736450,234.689102 700.082275,239.465012 703.513733,243.488281   C708.248169,249.039352 713.773804,253.732132 720.059326,257.398315   C721.534058,258.258484 722.690186,259.083710 723.500000,260.500000  "
  />
  <path
    fill="none"
    opacity="1.000000"
    stroke="currentColor"
    stroke-linecap="round"
    stroke-linejoin="round"
    stroke-width="3.000000"
    d=" M877.500000,748.500000   C872.630981,757.941467 866.284241,766.420410 858.839417,773.838867   C854.914185,777.750122 849.315796,779.972229 844.503662,783.005798   C834.578735,789.262329 824.990417,796.146240 813.977661,800.442688   C808.387085,802.623718 802.570312,804.211121 796.929688,806.311157   C795.390808,806.884155 794.553345,808.273315 793.000000,808.500000  "
  />
  <path
    fill="none"
    opacity="1.000000"
    stroke="currentColor"
    stroke-linecap="round"
    stroke-linejoin="round"
    stroke-width="2.000000"
    d=" M357.500000,979.500000   C346.000000,984.166626 334.497528,988.827209 323.000854,993.502075   C314.829834,996.824646 306.666656,1000.166687 298.500000,1003.500000  "
  />
  <path
    fill="none"
    opacity="1.000000"
    stroke="currentColor"
    stroke-linecap="round"
    stroke-linejoin="round"
    stroke-width="3.000000"
    d=" M871.000000,653.500000   C866.712891,645.833923 860.724609,644.245117 853.512451,649.018799   C847.817871,652.787964 840.912476,654.095093 835.455933,658.444702   C826.362366,665.693481 819.043274,674.175903 814.433777,684.971741   C812.855835,688.667236 810.513672,691.940613 809.313538,695.944092   C808.260803,699.456055 808.934570,702.655090 808.267639,706.661804   C817.044617,706.042297 824.815735,705.103882 831.508667,700.011353   C834.441589,697.779602 837.374084,695.402161 841.500000,696.500000  "
  />
  <path
    fill="none"
    opacity="1.000000"
    stroke="currentColor"
    stroke-linecap="round"
    stroke-linejoin="round"
    stroke-width="3.000000"
    d=" M377.500000,46.500000   C375.415009,47.029808 374.660156,48.949726 374.074341,50.527596   C370.754089,59.470577 366.163635,68.301697 364.942413,77.558357   C363.825348,86.025345 361.004150,93.626038 358.500000,101.500000  "
  />
  <path
    fill="none"
    opacity="1.000000"
    stroke="currentColor"
    stroke-linecap="round"
    stroke-linejoin="round"
    stroke-width="2.000000"
    d=" M411.500000,622.500000   C410.128448,639.579346 406.664429,656.308228 402.987274,672.997192   C400.890686,682.512634 398.666656,692.000000 396.500000,701.500000  "
  />
  <path
    fill="none"
    opacity="1.000000"
    stroke="currentColor"
    stroke-linecap="round"
    stroke-linejoin="round"
    stroke-width="3.000000"
    d=" M708.500000,41.500000   C714.376709,42.146824 717.949463,46.740646 721.862671,50.157261   C729.651123,56.957241 737.099060,63.966324 745.846069,69.733505   C753.154114,74.551994 752.148621,84.567848 744.946716,89.420937   C744.401672,89.788216 743.310608,89.812180 743.034424,90.513557   C740.303772,97.449364 732.910583,98.750984 727.848999,102.811783   C722.791809,106.869087 717.286316,110.662910 711.030090,113.077888   C708.350342,114.112297 706.000000,116.000000 703.500000,117.500000  "
  />
  <path
    fill="none"
    opacity="1.000000"
    stroke="currentColor"
    stroke-linecap="round"
    stroke-linejoin="round"
    stroke-width="3.000000"
    d=" M589.500000,63.000004   C587.666687,66.833336 585.680908,70.602333 584.030640,74.512947   C580.193420,83.605797 578.110535,93.131317 578.060669,103.000305   C578.036316,107.828506 580.577332,111.882889 583.543335,115.464088   C587.758301,120.553177 591.298706,126.367966 597.500000,129.500000  "
  />
  <path
    fill="none"
    opacity="1.000000"
    stroke="currentColor"
    stroke-linecap="round"
    stroke-linejoin="round"
    stroke-width="2.000000"
    d=" M876.000000,629.000000   C869.548584,629.252319 863.286926,630.125671 856.949158,631.808411   C846.387512,634.612427 837.571045,640.185974 828.990723,646.487427   C826.383728,648.401978 823.666687,650.166687 821.000000,652.000061  "
  />
  <path
    fill="none"
    opacity="1.000000"
    stroke="currentColor"
    stroke-linecap="round"
    stroke-linejoin="round"
    stroke-width="3.000000"
    d=" M921.500000,711.500000   C916.100708,720.556152 909.638550,728.653748 901.576538,735.588989   C896.057739,740.336548 891.159546,745.534424 883.521240,747.103516   C877.005371,748.441956 871.567993,746.893188 866.497620,743.003113   C864.195862,741.237244 863.549500,739.116760 865.000000,736.500000  "
  />
  <path
    fill="none"
    opacity="1.000000"
    stroke="currentColor"
    stroke-linecap="round"
    stroke-linejoin="round"
    stroke-width="3.000000"
    d=" M416.500000,186.000000   C415.260162,186.345627 414.536438,184.302597 412.970459,185.460022   C409.358307,188.129761 405.232727,190.127716 401.673981,192.737274   C399.621521,194.242310 398.100220,195.697266 395.499756,195.503372   C395.168243,195.478653 394.621979,195.369888 394.530365,195.518692   C390.362549,202.289474 382.374115,204.283142 377.035919,209.536499   C373.485138,213.030945 371.341522,217.180191 371.427124,222.501175   C371.573944,231.629105 365.573425,239.589340 357.024872,243.061264   C351.925446,245.132385 346.767181,246.949921 341.500000,248.500000  "
  />
  <path
    fill="none"
    opacity="1.000000"
    stroke="currentColor"
    stroke-linecap="round"
    stroke-linejoin="round"
    stroke-width="4.000000"
    d=" M881.500000,685.000000   C881.526245,687.085327 880.930969,688.799316 879.565247,690.550842   C875.385925,695.911072 871.603271,701.579285 867.461975,706.970825   C864.906372,710.297791 863.389648,714.034424 862.589050,718.017883   C862.180847,720.049316 861.431519,721.632446 860.000000,723.000000  "
  />
  <path
    fill="none"
    opacity="1.000000"
    stroke="currentColor"
    stroke-linecap="round"
    stroke-linejoin="round"
    stroke-width="2.000000"
    d=" M289.500000,1007.500000   C281.108368,1009.677246 273.616241,1014.128235 265.498322,1016.995300   C261.174561,1018.522339 256.833344,1020.000000 252.500000,1021.500000  "
  />
  <path
    fill="none"
    opacity="1.000000"
    stroke="currentColor"
    stroke-linecap="round"
    stroke-linejoin="round"
    stroke-width="2.000000"
    d=" M430.500000,242.500000   C427.538422,241.743225 424.681976,242.960785 422.041534,243.657440   C412.849213,246.082672 405.091370,243.052185 397.478638,238.536026   C396.280518,237.825256 395.157013,236.636887 393.500000,237.000000  "
  />
  <path
    fill="none"
    opacity="1.000000"
    stroke="currentColor"
    stroke-linecap="round"
    stroke-linejoin="round"
    stroke-width="2.000000"
    d=" M337.500000,250.000000   C327.090271,254.155533 316.085785,256.402069 305.453705,259.857513   C303.675690,260.435364 302.138428,261.262695 300.500000,262.000000  "
  />
  <path
    fill="none"
    opacity="1.000000"
    stroke="currentColor"
    stroke-linecap="round"
    stroke-linejoin="round"
    stroke-width="3.000000"
    d=" M804.500000,666.000000   C801.626648,665.532410 801.029297,668.558899 799.046875,669.590149   C794.323730,672.047424 790.345642,675.441467 784.539307,676.273987   C778.945740,677.076050 773.433533,679.779297 770.500000,685.500000  "
  />
  <path
    fill="none"
    opacity="1.000000"
    stroke="currentColor"
    stroke-linecap="round"
    stroke-linejoin="round"
    stroke-width="8.000000"
    d=" M902.000000,707.000000   C900.149902,713.638123 894.502075,717.542053 890.322510,722.345581   C885.863220,727.470459 880.460266,731.901306 874.533020,735.553650   C870.549683,738.008118 865.555298,737.420654 863.622681,732.947021   C860.575623,725.893250 856.179504,719.510925 856.069641,711.005554   C856.008789,706.288574 857.067078,702.906982 858.878174,698.944336   C861.985413,692.145691 864.553223,685.072266 866.889954,677.963867   C867.804504,675.181763 866.765259,672.219177 864.500000,670.000000  "
  />
  <path
    fill="none"
    opacity="1.000000"
    stroke="currentColor"
    stroke-linecap="round"
    stroke-linejoin="round"
    stroke-width="3.000000"
    d=" M888.000000,681.500000   C890.881409,685.043274 888.067566,688.825745 888.401306,692.508911   C888.944214,698.500122 885.989319,703.481750 883.080627,708.546326   C878.280090,716.904907 872.394714,724.077271 864.000000,729.000000  "
  />
  <path
    fill="none"
    opacity="1.000000"
    stroke="currentColor"
    stroke-linecap="round"
    stroke-linejoin="round"
    stroke-width="5.000000"
    d=" M934.750000,1140.000000   C932.933044,1147.562256 931.752747,1155.573364 932.876587,1162.942505   C934.406799,1172.975830 930.188965,1181.390991 928.396851,1190.479614   C928.057861,1192.199097 928.245728,1193.840088 928.003906,1195.500610   C926.329773,1206.999512 924.456482,1218.474976 923.080811,1230.009644   C922.288269,1236.655029 922.463318,1243.400391 921.028381,1250.006226   C919.405090,1257.479370 918.004944,1265.000977 916.498108,1272.499634   C915.628723,1276.826050 915.578430,1281.309937 914.000000,1285.500000  "
  />
  <path
    fill="none"
    opacity="1.000000"
    stroke="currentColor"
    stroke-linecap="round"
    stroke-linejoin="round"
    stroke-width="3.000000"
    d=" M258.500000,168.000000   C250.516968,162.432724 244.149597,167.089645 238.040710,171.555679   C229.416061,177.860947 223.116714,186.377350 217.000000,195.000000  "
  />
  <path
    fill="none"
    opacity="1.000000"
    stroke="currentColor"
    stroke-linecap="round"
    stroke-linejoin="round"
    stroke-width="3.000000"
    d=" M929.000000,638.000000   C928.107849,640.213013 929.136047,642.057495 930.539124,643.460876   C935.141724,648.064392 935.849548,654.105469 936.989441,660.002014   C937.712341,663.741150 938.333313,667.500000 939.000000,671.250000  "
  />
  <path
    fill="none"
    opacity="1.000000"
    stroke="currentColor"
    stroke-linecap="round"
    stroke-linejoin="round"
    stroke-width="4.000000"
    d=" M903.500000,669.000000   C904.666687,669.333374 906.011475,670.216003 906.969299,669.905334   C911.225586,668.525024 914.447144,670.233276 916.378601,673.570251   C918.315857,676.917236 917.795654,680.734985 916.580139,684.525696   C915.164612,688.940063 912.812073,693.148804 913.000000,698.000000  "
  />
  <path
    fill="none"
    opacity="1.000000"
    stroke="currentColor"
    stroke-linecap="round"
    stroke-linejoin="round"
    stroke-width="3.000000"
    d=" M481.500000,62.000000   C481.557617,64.389526 481.566132,66.455505 479.623077,68.610947   C476.785339,71.758858 474.123596,75.178589 471.340881,78.360847   C467.930786,82.260559 462.577301,83.218643 457.497498,83.443687   C447.110596,83.903870 436.891418,85.284058 427.024536,88.573608   C423.907440,89.612823 420.473236,91.467270 421.121368,95.480400   C421.853821,100.015854 420.395782,102.252228 416.009064,103.049843   C414.802979,103.269142 414.030670,104.849304 412.500000,104.500000  "
  />
  <path
    fill="none"
    opacity="1.000000"
    stroke="currentColor"
    stroke-linecap="round"
    stroke-linejoin="round"
    stroke-width="3.000000"
    d=" M374.500000,80.500000   C369.965881,81.569557 372.876678,84.746368 373.668549,85.882515   C375.658752,88.737854 378.197327,91.443771 381.067383,93.401207   C385.990204,96.758713 391.333344,99.500000 396.500000,102.500000  "
  />
  <path
    fill="none"
    opacity="1.000000"
    stroke="currentColor"
    stroke-linecap="round"
    stroke-linejoin="round"
    stroke-width="2.000000"
    d=" M552.500000,76.500000   C544.166687,81.666664 535.826965,86.823166 527.516968,92.027069   C527.052612,92.317825 526.833313,93.000000 526.500000,93.500000  "
  />
  <path
    fill="none"
    opacity="1.000000"
    stroke="currentColor"
    stroke-linecap="round"
    stroke-linejoin="round"
    stroke-width="5.000000"
    d=" M840.000000,707.500000   C839.885071,700.121155 843.162415,693.567261 847.255066,688.194275   C852.011475,681.949768 856.173096,674.797607 862.640320,670.197327   C866.507080,667.446838 864.748230,664.788208 864.418701,662.009644   C864.085815,659.203064 861.581604,659.428345 859.500793,659.518738   C857.251587,659.616394 855.092224,659.364441 852.997742,658.505493   C847.582642,656.284607 843.420715,659.414795 840.117126,662.620728   C833.793274,668.757812 826.629883,674.212891 823.706604,683.406738   C822.755371,686.398499 819.771606,689.163025 818.507019,692.502625   C817.031738,696.398499 816.301514,700.372375 817.500000,704.500000  "
  />
  <path
    fill="none"
    opacity="1.000000"
    stroke="currentColor"
    stroke-linecap="round"
    stroke-linejoin="round"
    stroke-width="3.000000"
    d=" M927.000000,642.000000   C919.088928,649.594116 911.843323,657.844360 904.226929,665.719482   C901.596130,668.439697 899.543335,670.058472 896.000000,670.000000  "
  />
  <path
    fill="none"
    opacity="1.000000"
    stroke="currentColor"
    stroke-linecap="round"
    stroke-linejoin="round"
    stroke-width="5.000000"
    d=" M914.500000,639.000000   C907.336731,638.008484 901.914795,642.021973 897.155334,646.177917   C893.480225,649.386902 890.803040,653.452698 885.531433,654.639587   C883.342163,655.132324 880.992737,656.774170 879.598572,658.576172   C875.946350,663.296814 871.368347,665.570007 865.500000,665.500000  "
  />
  <path
    fill="none"
    opacity="1.000000"
    stroke="currentColor"
    stroke-linecap="round"
    stroke-linejoin="round"
    stroke-width="3.000000"
    d=" M95.500000,93.500008   C89.333336,97.333336 83.245232,101.302971 76.957893,104.926964   C74.720802,106.216408 72.000000,106.666672 69.500000,107.500000  "
  />
  <path
    fill="none"
    opacity="1.000000"
    stroke="currentColor"
    stroke-linecap="round"
    stroke-linejoin="round"
    stroke-width="3.000000"
    d=" M747.000000,759.000000   C749.417786,763.586243 748.049011,768.491089 747.304932,772.967590   C745.894775,781.452026 745.918518,790.038757 744.740173,798.533325   C744.256470,802.020508 746.690857,805.994690 750.528198,807.424316   C760.095093,810.988647 769.682129,813.614563 780.070007,809.685120   C783.971191,808.209473 788.666687,808.833313 793.000000,808.500000  "
  />
  <path
    fill="none"
    opacity="1.000000"
    stroke="currentColor"
    stroke-linecap="round"
    stroke-linejoin="round"
    stroke-width="3.000000"
    d=" M950.500000,653.500000   C946.140381,654.429871 946.427490,658.671387 945.089966,661.541931   C938.747864,675.153442 929.443115,686.581726 918.305481,696.276550   C913.998779,700.025330 907.910706,701.809387 903.412231,705.903564   C901.372620,707.759766 898.924011,706.039673 899.593933,703.020813   C901.652893,693.742615 897.847595,685.024292 897.438293,676.002808   C897.414612,675.481201 896.500000,675.000000 896.000000,674.500000  "
  />
  <path
    fill="none"
    opacity="1.000000"
    stroke="currentColor"
    stroke-linecap="round"
    stroke-linejoin="round"
    stroke-width="2.000000"
    d=" M467.000000,211.500000   C464.406097,213.486069 465.201569,216.350983 464.968292,218.997208   C464.585327,223.340851 464.285309,227.726639 463.391663,231.977219   C462.866516,234.475266 461.506927,236.402679 458.011200,236.654984   C451.804688,237.102936 445.666656,238.500015 439.500000,239.500015  "
  />
  <path
    fill="none"
    opacity="1.000000"
    stroke="currentColor"
    stroke-linecap="round"
    stroke-linejoin="round"
    stroke-width="3.000000"
    d=" M937.000000,677.500000   C938.725769,682.749878 935.316467,686.738342 933.406555,690.957703   C931.137207,695.970886 928.166626,700.666687 925.500000,705.500000  "
  />
  <path
    fill="none"
    opacity="1.000000"
    stroke="currentColor"
    stroke-linecap="round"
    stroke-linejoin="round"
    stroke-width="2.000000"
    d=" M1026.500000,334.500000   C1028.434692,341.863739 1032.252319,348.465240 1035.071655,355.471191   C1035.360352,356.188629 1035.399292,356.816833 1035.500000,357.500000  "
  />
  <path
    fill="none"
    opacity="1.000000"
    stroke="currentColor"
    stroke-linecap="round"
    stroke-linejoin="round"
    stroke-width="3.000000"
    d=" M619.000000,47.000000   C615.038269,47.964195 611.660950,50.807518 607.497925,50.930099   C604.262695,51.025364 604.849792,54.360970 602.647827,55.736618   C595.129822,60.433472 586.813538,62.378391 578.481018,64.422554   C576.103394,65.005829 574.110413,66.803062 571.500000,66.500000  "
  />
  <path
    fill="none"
    opacity="1.000000"
    stroke="currentColor"
    stroke-linecap="round"
    stroke-linejoin="round"
    stroke-width="2.000000"
    d=" M288.500000,142.500000   C281.784698,144.902756 275.262238,147.743195 269.559570,152.078384   C268.313934,153.025360 267.231720,152.894348 266.000000,153.000000  "
  />
  <path
    fill="none"
    opacity="1.000000"
    stroke="currentColor"
    stroke-linecap="round"
    stroke-linejoin="round"
    stroke-width="3.000000"
    d=" M789.500000,816.000000   C778.490295,816.013184 767.512695,814.929260 756.472717,816.842529   C748.855591,818.162598 741.360229,819.704346 734.000000,822.000000  "
  />
  <path
    fill="none"
    opacity="1.000000"
    stroke="currentColor"
    stroke-linecap="round"
    stroke-linejoin="round"
    stroke-width="3.000000"
    d=" M667.500000,70.500000   C667.634827,73.710930 668.168701,76.568916 671.990051,77.539116   C674.693115,78.225388 674.462524,81.156754 675.378845,83.058372   C676.470947,85.324631 677.296753,86.681053 679.470276,84.470764   C681.381836,82.526817 683.038574,80.332253 684.931213,78.103119   C682.939880,75.286911 680.442505,74.448349 677.500000,74.500000  "
  />
  <path
    fill="none"
    opacity="1.000000"
    stroke="currentColor"
    stroke-linecap="round"
    stroke-linejoin="round"
    stroke-width="3.000000"
    d=" M457.000000,191.000000   C456.166656,191.166672 455.145020,191.079666 454.528015,191.537720   C443.847809,199.466751 431.237000,195.910812 419.499146,197.493774   C418.791534,197.589188 418.452545,197.214111 418.500000,196.500000  "
  />
  <path
    fill="none"
    opacity="1.000000"
    stroke="currentColor"
    stroke-linecap="round"
    stroke-linejoin="round"
    stroke-width="5.000000"
    d=" M839.500000,702.500000   C836.015930,704.202759 833.025635,706.589844 829.929565,708.905823   C825.305664,712.364807 822.184265,711.432617 819.000000,706.500000  "
  />
  <path
    fill="none"
    opacity="1.000000"
    stroke="currentColor"
    stroke-linecap="round"
    stroke-linejoin="round"
    stroke-width="2.000000"
    d=" M854.500000,304.500000   C847.773560,300.861664 841.542847,296.066620 833.500000,295.500000  "
  />
  <path
    fill="none"
    opacity="1.000000"
    stroke="currentColor"
    stroke-linecap="round"
    stroke-linejoin="round"
    stroke-width="3.000000"
    d=" M646.000000,78.500000   C642.395569,82.196167 640.642883,87.011086 638.660095,91.569633   C637.760803,93.637154 638.057068,96.721458 641.500000,97.500000  "
  />
  <path
    fill="none"
    opacity="1.000000"
    stroke="currentColor"
    stroke-linecap="round"
    stroke-linejoin="round"
    stroke-width="2.000000"
    d=" M507.500000,87.500000   C498.356140,83.771812 488.609711,82.685631 479.000000,81.000000  "
  />
  <path
    fill="none"
    opacity="1.000000"
    stroke="currentColor"
    stroke-linecap="round"
    stroke-linejoin="round"
    stroke-width="8.000000"
    d=" M892.500000,653.000000   C893.166626,654.333374 893.716614,655.742004 894.520203,656.986938   C897.992188,662.365479 897.209473,668.417969 892.518616,673.018982   C890.079651,675.411255 888.088745,678.318542 885.448669,680.436035   C879.254395,685.404175 872.420227,689.557495 866.950989,695.454529   C865.539612,696.976318 863.342041,695.928772 861.500000,696.000000  "
  />
  <path
    fill="none"
    opacity="1.000000"
    stroke="currentColor"
    stroke-linecap="round"
    stroke-linejoin="round"
    stroke-width="3.000000"
    d=" M517.500000,88.500000   C520.402039,89.581512 522.486694,91.929253 525.345825,93.317566   C529.732483,95.447609 529.872437,101.006271 529.826416,105.498222   C529.800049,108.084015 530.102722,111.040085 528.500000,113.500000  "
  />
  <path
    fill="none"
    opacity="1.000000"
    stroke="currentColor"
    stroke-linecap="round"
    stroke-linejoin="round"
    stroke-width="4.000000"
    d=" M664.500000,42.500000   C657.006531,46.701416 648.590210,45.981056 640.500000,47.000000  "
  />
  <path
    fill="none"
    opacity="1.000000"
    stroke="currentColor"
    stroke-linecap="round"
    stroke-linejoin="round"
    stroke-width="2.000000"
    d=" M734.000000,1.999990   C739.833313,7.499990 745.666687,12.999990 751.500000,18.499989  "
  />
  <path
    fill="none"
    opacity="1.000000"
    stroke="currentColor"
    stroke-linecap="round"
    stroke-linejoin="round"
    stroke-width="4.000000"
    d=" M675.500000,51.500000   C685.681641,56.748421 692.543274,64.150772 690.437073,76.489258   C689.823853,80.081406 689.060791,83.417023 692.500000,86.000000  "
  />
  <path
    fill="none"
    opacity="1.000000"
    stroke="currentColor"
    stroke-linecap="round"
    stroke-linejoin="round"
    stroke-width="3.000000"
    d=" M743.500000,760.000000   C739.830078,766.117920 734.152100,769.841614 728.300537,773.197144   C726.173950,769.920654 729.113037,766.590515 727.500000,763.500000  "
  />
  <path
    fill="none"
    opacity="1.000000"
    stroke="currentColor"
    stroke-linecap="round"
    stroke-linejoin="round"
    stroke-width="2.000000"
    d=" M71.500000,252.500000   C71.651611,261.333344 72.209946,270.145294 71.659256,279.009888   C71.419159,282.874878 71.017212,286.682648 70.500000,290.500000  "
  />
  <path
    fill="none"
    opacity="1.000000"
    stroke="currentColor"
    stroke-linecap="round"
    stroke-linejoin="round"
    stroke-width="2.000000"
    d=" M726.000000,261.000000   C732.417480,262.498016 737.608887,266.879578 743.953613,268.664825   C745.116943,268.992188 746.268311,269.394348 747.500000,269.500000  "
  />
  <path
    fill="none"
    opacity="1.000000"
    stroke="currentColor"
    stroke-linecap="round"
    stroke-linejoin="round"
    stroke-width="2.000000"
    d=" M1000.500000,281.500000   C1004.563660,286.235046 1007.135254,291.809357 1009.500000,297.500000  "
  />
  <path
    fill="none"
    opacity="1.000000"
    stroke="currentColor"
    stroke-linecap="round"
    stroke-linejoin="round"
    stroke-width="3.000000"
    d=" M866.500000,832.500000   C860.642883,832.582397 854.944763,831.051514 848.992065,831.221130   C845.134033,831.331055 841.217041,831.740845 837.539490,832.273010   C832.638977,832.982178 829.399536,831.092041 826.000000,828.500000  "
  />
  <path
    fill="none"
    opacity="1.000000"
    stroke="currentColor"
    stroke-linecap="round"
    stroke-linejoin="round"
    stroke-width="2.000000"
    d=" M414.500000,579.500000   C414.166687,584.833313 413.833344,590.166687 413.500000,595.500000  "
  />
  <path
    fill="none"
    opacity="1.000000"
    stroke="currentColor"
    stroke-linecap="round"
    stroke-linejoin="round"
    stroke-width="4.000000"
    d=" M62.500000,228.000000   C58.035801,224.221146 53.894176,219.873016 47.500000,219.500000  "
  />
  <path
    fill="none"
    opacity="1.000000"
    stroke="currentColor"
    stroke-linecap="round"
    stroke-linejoin="round"
    stroke-width="7.000000"
    d=" M853.500000,661.000000   C849.800171,663.826843 845.938477,665.913513 843.685547,670.856689   C841.137329,676.447815 842.067871,680.518982 845.000000,685.000000  "
  />
  <path
    fill="none"
    opacity="1.000000"
    stroke="currentColor"
    stroke-linecap="round"
    stroke-linejoin="round"
    stroke-width="2.000000"
    d=" M1010.500000,301.500000   C1014.922058,305.563812 1015.308838,311.779755 1018.500000,316.500000  "
  />
  <path
    fill="none"
    opacity="1.000000"
    stroke="currentColor"
    stroke-linecap="round"
    stroke-linejoin="round"
    stroke-width="4.000000"
    d=" M653.500000,62.500000   C649.112061,64.661865 649.059692,69.112076 648.038208,73.010017   C647.710022,74.262497 648.411865,75.787605 647.000000,76.750000  "
  />
  <path
    fill="none"
    opacity="1.000000"
    stroke="currentColor"
    stroke-linecap="round"
    stroke-linejoin="round"
    stroke-width="3.000000"
    d=" M380.500000,221.500000   C381.515289,227.538437 384.337860,231.851730 391.000000,232.500000  "
  />
  <path
    fill="none"
    opacity="1.000000"
    stroke="currentColor"
    stroke-linecap="round"
    stroke-linejoin="round"
    stroke-width="3.000000"
    d=" M846.500000,687.000000   C842.258850,686.675842 838.299011,687.341370 834.467834,689.441345   C830.156006,691.804749 829.195923,691.243042 824.000000,685.000000  "
  />
  <path
    fill="none"
    opacity="1.000000"
    stroke="currentColor"
    stroke-linecap="round"
    stroke-linejoin="round"
    stroke-width="3.000000"
    d=" M746.500000,794.500000   C750.008667,794.026550 752.380066,796.796204 754.865417,798.232849   C761.247192,801.921814 768.076050,803.974854 774.998901,806.003784   C777.044556,806.603333 779.425415,806.608948 780.500000,809.000000  "
  />
  <path
    fill="none"
    opacity="1.000000"
    stroke="currentColor"
    stroke-linecap="round"
    stroke-linejoin="round"
    stroke-width="3.000000"
    d=" M691.000000,66.000000   C694.952576,65.808914 698.143494,68.362068 701.363525,69.804604   C706.537781,72.122551 705.869873,76.663216 701.675598,81.647766   C700.375244,83.193100 698.902527,84.235870 697.500000,85.500000  "
  />
  <path
    fill="none"
    opacity="1.000000"
    stroke="currentColor"
    stroke-linecap="round"
    stroke-linejoin="round"
    stroke-width="4.000000"
    d=" M682.000000,93.000000   C677.322998,92.877365 673.418701,96.489082 668.477234,95.631020   C666.891296,95.355621 665.582336,95.169319 664.500000,94.000000  "
  />
  <path
    fill="none"
    opacity="1.000000"
    stroke="currentColor"
    stroke-linecap="round"
    stroke-linejoin="round"
    stroke-width="3.000000"
    d=" M113.500000,75.500000   C109.798164,80.422241 104.773224,84.210388 101.500000,89.500000  "
  />
  <path
    fill="none"
    opacity="1.000000"
    stroke="currentColor"
    stroke-linecap="round"
    stroke-linejoin="round"
    stroke-width="3.000000"
    d=" M952.000000,643.000000   C952.781677,641.379333 954.813599,639.995300 953.916687,638.038208   C952.952759,635.934692 950.199341,635.350830 948.530396,635.662720   C942.539124,636.782593 936.469055,636.030823 930.492676,636.952698   C927.394165,637.430664 924.821960,635.371948 922.000000,634.500000  "
  />
  <path
    fill="none"
    opacity="1.000000"
    stroke="currentColor"
    stroke-linecap="round"
    stroke-linejoin="round"
    stroke-width="2.000000"
    d=" M920.000000,633.000000   C917.619385,631.189087 914.670959,631.317200 911.991577,631.108276   C907.462219,630.754883 902.937439,630.562988 898.500000,629.500000  "
  />
  <path
    fill="none"
    opacity="1.000000"
    stroke="currentColor"
    stroke-linecap="round"
    stroke-linejoin="round"
    stroke-width="2.000000"
    d=" M244.500000,160.500000   C239.297668,162.877258 235.957245,167.998398 230.500000,170.000000  "
  />
  <path
    fill="none"
    opacity="1.000000"
    stroke="currentColor"
    stroke-linecap="round"
    stroke-linejoin="round"
    stroke-width="2.000000"
    d=" M1044.500000,380.500000   C1045.833252,384.833344 1047.166626,389.166687 1048.500000,393.500000  "
  />
  <path
    fill="none"
    opacity="1.000000"
    stroke="currentColor"
    stroke-linecap="round"
    stroke-linejoin="round"
    stroke-width="2.000000"
    d=" M819.999939,652.999939   C816.166626,656.166626 812.333252,659.333252 808.499939,662.499939  "
  />
  <path
    fill="none"
    opacity="1.000000"
    stroke="currentColor"
    stroke-linecap="round"
    stroke-linejoin="round"
    stroke-width="3.000000"
    d=" M942.500000,327.500000   C943.500000,331.500000 944.500000,335.500000 945.500000,339.500000  "
  />
  <path
    fill="none"
    opacity="1.000000"
    stroke="currentColor"
    stroke-linecap="round"
    stroke-linejoin="round"
    stroke-width="2.000000"
    d=" M948.500000,343.500000   C949.567383,347.588654 950.314453,351.784088 952.500000,355.500000  "
  />
  <path
    fill="none"
    opacity="1.000000"
    stroke="currentColor"
    stroke-linecap="round"
    stroke-linejoin="round"
    stroke-width="2.000000"
    d=" M1038.500000,364.500000   C1039.548828,368.594849 1042.016479,372.216736 1042.500000,376.500000  "
  />
  <path
    fill="none"
    opacity="1.000000"
    stroke="currentColor"
    stroke-linecap="round"
    stroke-linejoin="round"
    stroke-width="2.000000"
    d=" M753.500000,20.500004   C757.166687,23.833336 760.833313,27.166670 764.500000,30.500004  "
  />
  <path
    fill="none"
    opacity="1.000000"
    stroke="currentColor"
    stroke-linecap="round"
    stroke-linejoin="round"
    stroke-width="4.000000"
    d=" M764.500000,743.500000   C760.820801,744.560547 758.137146,747.197693 756.097534,750.069275   C752.068848,755.741272 747.426636,759.205505 740.000061,759.207397   C735.999756,759.208374 732.000000,761.333313 728.000000,762.500000  "
  />
  <path
    fill="none"
    opacity="1.000000"
    stroke="currentColor"
    stroke-linecap="round"
    stroke-linejoin="round"
    stroke-width="2.000000"
    d=" M890.500000,961.500000   C888.495544,965.729370 884.442322,968.114746 881.500000,971.500000  "
  />
  <path
    fill="none"
    opacity="1.000000"
    stroke="currentColor"
    stroke-linecap="round"
    stroke-linejoin="round"
    stroke-width="5.000000"
    d=" M651.000000,98.000000   C650.597351,101.789757 651.266907,105.433296 652.500000,109.000000  "
  />
  <path
    fill="none"
    opacity="1.000000"
    stroke="currentColor"
    stroke-linecap="round"
    stroke-linejoin="round"
    stroke-width="3.000000"
    d=" M656.500000,77.500000   C654.966858,81.723755 656.746765,85.000923 659.500000,88.000000  "
  />
  <path
    fill="none"
    opacity="1.000000"
    stroke="currentColor"
    stroke-linecap="round"
    stroke-linejoin="round"
    stroke-width="4.000000"
    d=" M219.500000,262.000000   C215.166672,264.500000 210.833344,267.000000 206.500000,269.500000  "
  />
  <path
    fill="none"
    opacity="1.000000"
    stroke="currentColor"
    stroke-linecap="round"
    stroke-linejoin="round"
    stroke-width="3.000000"
    d=" M349.500000,401.500000   C354.621429,401.257172 357.876953,404.746063 361.500000,407.500000  "
  />
  <path
    fill="none"
    opacity="1.000000"
    stroke="currentColor"
    stroke-linecap="round"
    stroke-linejoin="round"
    stroke-width="3.000000"
    d=" M949.000000,649.500000   C946.333313,646.666687 943.666687,643.833313 941.000000,641.000000  "
  />
  <path
    fill="none"
    opacity="1.000000"
    stroke="currentColor"
    stroke-linecap="round"
    stroke-linejoin="round"
    stroke-width="2.000000"
    d=" M766.500000,31.500006   C769.500000,34.166672 772.500000,36.833340 775.500000,39.500004  "
  />
  <path
    fill="none"
    opacity="1.000000"
    stroke="currentColor"
    stroke-linecap="round"
    stroke-linejoin="round"
    stroke-width="3.000000"
    d=" M675.000000,86.000000   C672.699158,87.975517 670.186035,89.264748 666.997498,89.034340   C664.752991,88.872147 663.033752,89.945099 662.000000,92.000000  "
  />
  <path
    fill="none"
    opacity="1.000000"
    stroke="currentColor"
    stroke-linecap="round"
    stroke-linejoin="round"
    stroke-width="5.000000"
    d=" M373.000000,70.500000   C372.237793,73.715553 372.298859,76.887779 373.500000,80.000000  "
  />
  <path
    fill="none"
    opacity="1.000000"
    stroke="currentColor"
    stroke-linecap="round"
    stroke-linejoin="round"
    stroke-width="4.000000"
    d=" M660.000000,93.000000   C657.456482,95.047440 654.742004,96.771980 651.500000,97.500000  "
  />
  <path
    fill="none"
    opacity="1.000000"
    stroke="currentColor"
    stroke-linecap="round"
    stroke-linejoin="round"
    stroke-width="3.000000"
    d=" M943.500000,637.000000   C944.967407,640.952881 949.913208,640.357117 952.193481,644.038391   C951.070251,646.641296 948.673401,649.396484 949.500000,653.000000  "
  />
  <path
    fill="none"
    opacity="1.000000"
    stroke="currentColor"
    stroke-linecap="round"
    stroke-linejoin="round"
    stroke-width="3.000000"
    d=" M698.000000,69.500000   C699.043030,72.404495 699.802917,75.292328 697.500000,78.000000  "
  />
  <path
    fill="none"
    opacity="1.000000"
    stroke="currentColor"
    stroke-linecap="round"
    stroke-linejoin="round"
    stroke-width="4.000000"
    d=" M834.000061,833.500000   C834.333374,836.166687 834.666687,838.833313 835.000061,841.500000  "
  />
  <path
    fill="none"
    opacity="1.000000"
    stroke="currentColor"
    stroke-linecap="round"
    stroke-linejoin="round"
    stroke-width="6.000000"
    d=" M845.000000,698.500000   C846.000000,700.333313 846.943542,702.200378 848.013428,703.992004   C849.550354,706.565552 851.808655,707.038513 854.500000,706.000000  "
  />
  <path
    fill="none"
    opacity="1.000000"
    stroke="currentColor"
    stroke-linecap="round"
    stroke-linejoin="round"
    stroke-width="3.000000"
    d=" M815.000000,821.000000   C817.521484,822.207336 820.456604,822.771179 822.000000,825.500000  "
  />
  <path
    fill="none"
    opacity="1.000000"
    stroke="currentColor"
    stroke-linecap="round"
    stroke-linejoin="round"
    stroke-width="2.000000"
    d=" M637.500000,49.500000   C639.249695,49.263615 640.091797,48.270954 639.987122,46.251671   C637.329163,44.785442 634.336548,45.806049 631.500000,45.500000  "
  />
  <path
    fill="none"
    opacity="1.000000"
    stroke="currentColor"
    stroke-linecap="round"
    stroke-linejoin="round"
    stroke-width="3.000000"
    d=" M648.000000,77.500000   C649.219788,79.675301 650.143188,81.935287 650.000000,84.500000  "
  />
  <path
    fill="none"
    opacity="1.000000"
    stroke="currentColor"
    stroke-linecap="round"
    stroke-linejoin="round"
    stroke-width="3.000000"
    d=" M669.000000,73.000000   C670.904236,73.240013 673.141357,72.259521 674.500000,74.500000  "
  />
  <path
    fill="none"
    opacity="1.000000"
    stroke="currentColor"
    stroke-linecap="round"
    stroke-linejoin="round"
    stroke-width="3.000000"
    d=" M516.500000,95.500000   C512.509888,96.201820 508.494324,97.099007 505.000000,94.000000  "
  />
  <path
    fill="none"
    opacity="1.000000"
    stroke="currentColor"
    stroke-linecap="round"
    stroke-linejoin="round"
    stroke-width="5.000000"
    d=" M690.500000,84.500000   C685.559692,87.963112 682.612122,92.778481 681.000000,98.500000  "
  />
  <path
    fill="none"
    opacity="1.000000"
    stroke="currentColor"
    stroke-linecap="round"
    stroke-linejoin="round"
    stroke-width="3.000000"
    d=" M700.500000,81.000000   C696.697327,77.198563 696.089172,77.401276 693.000000,83.500000  "
  />
  <path
    fill="none"
    opacity="1.000000"
    stroke="currentColor"
    stroke-linecap="round"
    stroke-linejoin="round"
    stroke-width="3.000000"
    d=" M600.500000,1064.500000   C597.861694,1068.113403 593.619690,1065.312134 590.500000,1067.000000  "
  />
  <path
    fill="none"
    opacity="1.000000"
    stroke="currentColor"
    stroke-linecap="round"
    stroke-linejoin="round"
    stroke-width="3.000000"
    d=" M902.000061,723.500061   C899.500061,724.833374 897.000061,726.166748 894.500061,727.500061  "
  />
  <path
    fill="none"
    opacity="1.000000"
    stroke="currentColor"
    stroke-linecap="round"
    stroke-linejoin="round"
    stroke-width="4.000000"
    d=" M657.500000,70.500000   C660.472717,71.078697 663.419495,71.890945 666.500000,71.500000  "
  />
  <path
    fill="none"
    opacity="1.000000"
    stroke="currentColor"
    stroke-linecap="round"
    stroke-linejoin="round"
    stroke-width="2.000000"
    d=" M873.000000,737.500000   C873.908936,738.800720 874.993042,739.896973 876.500000,740.500000  "
  />
  <path
    fill="none"
    opacity="1.000000"
    stroke="currentColor"
    stroke-linecap="round"
    stroke-linejoin="round"
    stroke-width="2.000000"
    d=" M396.500000,225.499985   C395.333344,225.666656 394.166656,225.833313 393.000000,225.999985  "
  />
</svg>
