<svg
  xmlns="http://www.w3.org/2000/svg"
  xmlns:xlink="http://www.w3.org/1999/xlink"
  version="1.1"
  id="Layer_1"
  x="0px"
  y="0px"
  width="100%"
  viewBox="0 0 368 368"
  enable-background="new 0 0 368 368"
  xml:space="preserve"
>
  <path
    fill="currentColor"
    opacity="1.000000"
    stroke="none"
    d=" M236.482254,185.888657   C232.940231,185.315002 233.622162,182.727234 233.718781,180.748276   C234.129700,172.331299 231.954971,164.274582 230.507477,156.119003   C230.193466,154.349747 229.493164,152.638046 228.104523,151.162430   C221.547424,158.010513 216.432098,166.017166 209.616364,172.569687   C207.903214,174.216705 209.498260,176.462814 210.294968,178.108643   C214.616760,187.036652 215.751755,196.506805 215.341293,206.232712   C215.090958,212.164520 213.002808,217.894119 213.051163,224.310455   C217.902542,222.933716 222.284241,224.153946 226.872269,226.423798   C228.480042,221.323242 231.075211,217.909851 236.978165,220.417114   C237.594376,220.678848 238.580490,220.228317 239.343323,219.960892   C245.009506,217.974380 248.201614,219.626648 250.720245,225.008606   C253.458542,230.859940 256.759247,236.434814 260.638428,241.651413   C262.663422,244.374512 264.170746,247.294281 262.501953,250.905853   C261.893219,252.223267 261.481781,253.805832 261.556549,255.237350   C262.119568,266.020294 259.499817,268.791779 248.706543,268.070923   C252.556229,281.730316 245.664780,293.596039 242.560898,306.098114   C241.999222,308.360474 241.187439,310.516724 241.314957,312.903717   C241.495544,316.283875 240.116943,319.212250 237.736618,321.367096   C235.923416,323.008484 235.369049,324.696533 235.279083,326.998840   C235.088089,331.886658 229.595352,336.938507 224.373459,337.308624   C213.835831,338.055542 209.164917,335.636230 207.790344,328.680939   C206.525345,322.280090 206.238358,315.835419 207.008301,309.348663   C207.046097,309.030273 206.949799,308.695984 206.788498,307.138275   C199.486694,309.779022 191.759094,308.649475 184.166809,310.515717   C184.752655,316.270142 183.618927,321.260376 182.261063,326.221832   C181.474976,329.094086 179.872375,331.406586 177.246979,332.768219   C171.357269,335.822845 165.028168,337.072021 158.596817,335.330688   C152.485764,333.675995 150.599274,329.398682 152.569962,323.450104   C152.987869,322.188721 153.092926,320.728394 153.807480,319.675568   C159.811264,310.829437 158.173813,301.941132 154.684891,292.686829   C148.809402,277.102203 150.583099,261.869598 157.453751,246.892487   C159.650269,242.104355 160.669846,236.788483 162.543533,231.833420   C163.197571,230.103760 162.167801,229.225021 161.548996,228.283630   C159.088074,224.539886 156.682785,220.696045 153.732895,217.351456   C148.744537,211.695633 146.997772,204.987076 147.836853,197.943619   C148.542511,192.020111 152.160721,186.994095 155.658875,180.962982   C157.450699,185.804459 155.337799,188.938583 153.626480,191.193253   C147.824799,198.837021 150.280151,206.084930 154.857056,212.375092   C160.189056,219.702988 164.783066,227.782104 172.058029,233.556442   C173.393173,234.616165 174.158066,237.245438 176.882202,235.552200   C179.691376,233.806091 183.337631,233.558777 183.790878,228.822357   C184.291595,223.589920 180.917389,220.104904 179.320480,215.867691   C177.075455,209.910782 177.153946,209.225983 183.288025,207.679977   C184.734589,207.315384 186.199600,206.987289 187.675629,206.783737   C190.843811,206.346786 191.871262,207.901978 191.489624,210.895004   C191.161148,213.471237 190.160721,215.839722 188.521561,217.664917   C185.017380,221.566879 185.935715,225.790543 188.435287,229.071518   C190.933167,232.350235 194.903275,231.531342 198.985107,230.711395   C212.916397,227.912903 210.955887,216.014420 212.367340,206.940186   C214.258698,194.780533 210.430084,183.266525 203.833969,172.823593   C203.495605,172.287872 203.226303,171.356812 202.803314,171.280151   C198.041000,170.416916 200.086578,167.669739 201.204483,165.370987   C202.137863,163.451660 203.408936,161.696533 204.708817,159.578003   C202.007339,159.850555 201.441772,161.906815 200.372803,163.411133   C199.551651,164.566757 198.558990,165.449860 197.030319,164.884949   C195.645004,164.373032 195.810486,163.054550 195.728775,161.919754   C195.328674,156.363434 196.874390,151.151138 200.142731,146.894241   C206.364563,138.790466 210.867157,129.250122 219.559616,123.142815   C221.593460,121.713844 220.609955,119.430199 220.495316,117.549400   C220.356033,115.264061 219.172272,113.061737 220.007187,110.636383   C199.548462,124.213936 193.399445,145.741272 188.956894,168.543228   C186.131821,166.476639 186.487244,164.737335 186.912949,163.231079   C190.878342,149.200729 193.421341,134.579193 203.318085,122.963249   C209.790466,115.366516 216.409149,107.929993 225.824280,103.805038   C231.258545,101.424179 237.003387,103.229851 242.581024,102.707314   C244.989609,102.481667 247.311279,102.971428 249.413177,100.686295   C251.137985,98.811127 253.857086,99.130417 255.313492,101.677902   C257.040924,104.699448 265.952332,103.441948 260.573212,110.773972   C257.439484,115.045349 259.658203,120.245834 259.628143,124.840714   C259.535187,139.046356 255.854568,152.032578 249.516312,164.528946   C247.115051,169.263184 245.165268,174.227890 243.048264,179.104279   C241.762711,182.065491 240.359299,184.882492 236.482254,185.888657  M225.483109,291.089386   C226.627258,269.350861 220.368515,249.781143 208.743576,231.353592   C204.562271,234.588272 200.899551,237.238937 197.217804,239.621643   C191.442352,243.359314 185.059052,245.887894 177.635162,242.090958   C172.961243,239.700516 169.465134,236.134460 165.260132,232.282974   C163.390045,239.043076 162.335403,245.205963 159.680664,250.950684   C153.807800,263.659180 152.606964,276.659576 157.985962,289.998260   C159.836105,294.586212 161.265060,299.423248 162.210251,304.278137   C163.609543,311.465485 159.867249,317.488983 156.888672,323.625732   C154.894928,327.733429 156.324997,331.096191 160.863373,331.460571   C172.630707,332.405334 180.268295,329.356903 180.617310,316.018982   C180.864639,306.566071 176.925018,297.869141 175.152924,288.773804   C173.846344,282.067871 176.194168,276.643250 178.808792,270.979645   C181.622452,272.037537 181.704285,273.795776 180.860504,275.307617   C175.345352,285.189514 180.581314,294.396240 182.512695,303.800812   C182.857697,305.480682 183.941528,306.051514 185.838745,305.872986   C189.144836,305.561859 192.499680,305.816162 195.823502,305.637085   C204.973343,305.144196 208.132278,301.060577 206.353180,292.145477   C205.316879,286.952667 204.287308,281.757446 203.144363,276.587677   C202.826096,275.148041 202.591614,273.756897 204.251617,273.301361   C206.098587,272.794464 207.041443,274.039215 207.194611,275.746643   C207.888748,283.483978 209.991592,290.997925 210.456131,298.802216   C210.900970,306.275940 209.933304,313.687744 210.302582,321.140045   C210.770920,330.591675 212.769684,333.436859 220.929077,334.179443   C224.432114,334.498260 227.677414,333.342743 229.892365,330.008789   C231.947403,326.915497 231.086319,324.508820 229.114166,321.884186   C227.831085,320.176575 226.397705,318.291351 225.966904,316.284912   C224.244659,308.263550 224.166977,300.129089 225.483109,291.089386  M226.582840,105.707298   C224.991577,106.366585 224.733627,107.806259 224.241364,109.263397   C222.200165,115.305580 224.092300,121.039452 225.253983,126.881569   C226.912827,135.223892 226.819000,135.236816 234.824600,135.251907   C235.075974,135.252380 235.326630,135.643661 235.772781,136.015320   C235.719345,136.512787 235.883301,137.325455 235.550751,137.733353   C230.187653,144.311981 232.284500,151.276199 234.260544,158.320557   C234.924210,160.686447 234.712463,163.306534 235.434875,165.645493   C236.882767,170.333252 235.767776,175.340332 236.858597,180.590805   C237.925537,179.752075 238.443344,179.537811 238.649231,179.155548   C249.678940,158.677231 259.235291,137.819046 256.728546,113.566032   C256.136078,107.833656 254.362686,105.555984 248.334488,105.434868   C241.355408,105.294640 234.370193,105.459091 226.582840,105.707298  M216.948227,227.919022   C213.766830,228.655823 213.629471,230.234283 215.063751,232.969513   C220.695114,243.708649 225.378647,254.781326 227.757233,266.810455   C229.441635,275.328918 229.195099,283.894592 229.417480,292.489960   C231.208099,292.706970 231.778809,290.112488 234.304230,291.688782   C231.808136,300.215363 225.085648,309.120941 233.524063,318.504944   C236.217514,318.392517 237.301926,316.277069 237.781448,313.375000   C238.988007,306.073151 240.085815,298.848297 243.094513,291.854553   C245.397873,286.500366 246.362549,280.150787 245.318100,274.316711   C243.469223,263.989197 239.832031,254.031998 234.193024,245.182999   C229.900742,238.447311 227.219315,229.701019 216.948227,227.919022  M224.614990,137.462051   C222.751343,134.589142 224.678146,130.390289 220.913071,127.587685   C212.616058,135.253540 206.943298,144.701309 201.576065,154.508652   C204.624268,153.316116 207.176788,151.621277 209.740311,149.943237   C210.578827,149.394348 211.436569,148.806000 212.396179,149.757141   C213.233337,150.586899 213.214706,151.488434 212.657440,152.452484   C211.527222,154.407700 210.097443,156.237000 209.846268,159.213928   C214.936920,154.988007 219.288849,150.803757 222.883636,145.816147   C224.577988,143.465286 226.364197,141.289948 224.614990,137.462051  M236.511032,227.981567   C235.709854,231.215073 234.908676,234.448578 234.080597,237.790695   C236.853485,238.116592 237.501083,235.172028 239.654724,235.262680   C243.079529,236.834686 242.876999,240.919998 245.107758,243.282593   C253.197327,251.850098 253.283569,252.149918 247.282974,261.722534   C249.524689,262.803131 251.309464,264.801422 254.407562,264.179474   C253.816071,262.933228 252.003433,262.913940 252.557098,261.290131   C253.440552,260.363647 255.204178,260.791260 255.948608,259.052368   C253.120865,257.099335 250.613907,255.108963 256.103363,252.929047   C257.968170,252.188522 259.319427,249.998642 257.072174,247.644394   C256.093384,246.619003 255.576263,245.152847 254.896622,243.968979   C252.508575,243.577759 249.484924,245.857788 248.049377,242.113281   C249.928192,240.199783 253.959671,239.717209 252.829163,236.355408   C250.622513,229.793564 245.677567,236.352921 242.372025,234.781403   C241.111740,228.872299 241.111740,228.872299 236.511032,227.981567  M186.016907,233.969757   C184.425354,235.747894 181.590912,236.312592 180.951416,239.044174   C184.986511,241.581573 190.912506,240.236389 196.051666,235.294067   C192.130447,236.432480 189.695450,233.262802 186.016907,233.969757  M242.107101,248.628113   C241.552979,252.120819 243.339264,254.391968 245.870453,256.459015   C248.752228,251.978424 247.363892,248.808609 242.107101,248.628113  M182.333542,214.379059   C182.979553,215.500366 183.599731,217.073563 185.179352,215.723618   C186.241882,214.815567 187.341919,213.628159 187.284531,212.023880   C187.240723,210.798386 186.241226,210.330811 185.217255,210.510834   C183.440460,210.823212 181.531219,211.209091 182.333542,214.379059  z"
  />
  <path
    fill="currentColor"
    opacity="1.000000"
    stroke="none"
    d=" M151.862671,140.885681   C149.108963,131.030487 148.428696,121.306145 147.431396,111.573669   C146.129654,98.870270 144.760590,86.209969 144.580429,73.420197   C144.498291,67.590843 146.969467,62.428181 147.858810,56.879677   C148.025940,55.836948 148.767197,55.042370 149.921967,55.077953   C151.549850,55.128120 152.097885,56.388828 152.508514,57.702278   C154.384506,63.702702 156.267334,69.701050 158.119766,75.708755   C162.465256,89.801865 167.342010,103.771164 169.712479,118.375374   C170.982193,126.197899 171.421005,134.152878 172.333374,142.036667   C172.958618,147.439484 174.927750,152.688354 174.318283,158.227036   C174.100662,160.204636 175.494461,163.212631 172.709396,163.836624   C169.847870,164.477768 170.329727,160.927567 168.714401,159.263702   C171.151398,163.701538 166.441666,164.847809 165.085495,167.448288   C164.120361,169.298950 162.467468,167.483337 161.625092,165.797363   C157.681732,157.904968 154.102859,149.880157 151.862671,140.885681  M168.654800,141.410187   C167.682739,120.747620 155.424377,71.837616 149.007751,66.470528   C148.789978,96.051964 149.875305,125.468140 160.597992,153.681274   C160.816635,151.930954 160.719147,150.404327 162.975922,149.802811   C166.734726,148.800934 168.545563,146.121948 168.654800,141.410187  z"
  />
  <path
    fill="currentColor"
    opacity="1.000000"
    stroke="none"
    d=" M150.333313,35.311501   C158.943832,42.767010 161.842072,53.028664 165.503922,62.758469   C172.487473,81.314278 175.704041,100.738533 178.547073,120.291016   C180.038147,130.545639 180.449371,140.747803 180.312683,151.026718   C180.261047,154.909592 180.992004,158.635681 181.835175,162.355133   C182.282776,164.329620 182.615219,166.141739 181.117828,168.255753   C177.461243,165.664536 177.764999,161.746307 177.858276,158.760300   C178.400330,141.406387 176.465012,124.279419 173.567276,107.262489   C170.808380,91.060852 167.296310,75.031258 160.861404,59.749638   C158.471603,54.074360 156.220062,48.379555 152.842621,43.227917   C151.904419,41.796875 151.172272,39.553169 148.952133,39.799644   C146.833725,40.034828 146.299957,42.226254 145.672791,43.846405   C141.806381,53.834541 139.471481,64.305367 139.476379,74.916794   C139.488037,100.199196 142.409561,125.169525 150.413696,149.317978   C152.617111,155.965607 156.254623,161.918335 159.896774,167.878952   C161.086441,169.825912 164.269302,172.904205 160.988068,174.653625   C157.988190,176.253082 157.578796,171.878647 156.412491,170.046844   C144.572891,151.451553 141.159012,130.414352 138.497192,109.035278   C136.950241,96.610428 136.189941,84.201492 136.767136,71.767830   C137.323334,59.786850 139.267944,47.981136 145.920517,37.519588   C146.927567,35.935928 147.579712,34.106571 150.333313,35.311501  z"
  />
  <path
    fill="currentColor"
    opacity="1.000000"
    stroke="none"
    d=" M195.927231,196.706055   C191.035187,195.776031 191.571457,193.192596 193.597015,189.881958   C197.342728,191.122604 198.296753,193.199738 195.927231,196.706055  z"
  />
  <path
    fill="currentColor"
    opacity="1.000000"
    stroke="none"
    d=" M168.687347,196.450317   C167.090393,193.383835 168.179565,191.533218 170.937164,191.119232   C172.739822,190.848602 173.242554,192.610413 173.241882,194.210327   C173.240555,197.390030 171.489502,197.705048 168.687347,196.450317  z"
  />
</svg>
